<?xml version="1.0" encoding="utf-8"?>
<!-- Generator: Adobe Illustrator 25.2.0, SVG Export Plug-In . SVG Version: 6.00 Build 0)  -->
<svg version="1.1" id="Layer_1" xmlns="http://www.w3.org/2000/svg" xmlns:xlink="http://www.w3.org/1999/xlink" x="0px" y="0px"
	 viewBox="0 0 73.1 57.9" style="enable-background:new 0 0 73.1 57.9;" xml:space="preserve">
<style type="text/css">
	.st0{fill:none;}
	.st1{fill:none;stroke:#000000;stroke-width:0.72;}
	.st2{fill:none;stroke:#000000;stroke-width:2;stroke-miterlimit:10;}
	.st3{fill:url(#SVGID_1_);stroke:#000000;stroke-width:0.5;stroke-miterlimit:10;}
	.st4{fill:none;stroke:#000000;stroke-width:2;stroke-linecap:round;stroke-linejoin:round;stroke-miterlimit:10;}
	.st5{fill:none;stroke:#000000;stroke-width:1.8929;stroke-miterlimit:10;}
	.st6{fill:none;stroke:#000000;stroke-width:1.2887;stroke-miterlimit:10;}
	.st7{fill:none;stroke:#000000;stroke-width:1.2887;stroke-linecap:round;stroke-linejoin:round;stroke-miterlimit:10;}
</style>
<pattern  x="-468.4" y="-375.4" width="72" height="72" patternUnits="userSpaceOnUse" id="_x31_0_lpi_10_x25_" viewBox="72.2 -72 72 72" style="overflow:visible;">
	<g>
		<rect x="72.2" y="-72" class="st0" width="72" height="72"/>
		<g>
			<line class="st1" x1="144" y1="-3.6" x2="216.5" y2="-3.6"/>
			<line class="st1" x1="144" y1="-18" x2="216.5" y2="-18"/>
			<line class="st1" x1="144" y1="-32.4" x2="216.5" y2="-32.4"/>
			<line class="st1" x1="144" y1="-46.8" x2="216.5" y2="-46.8"/>
			<line class="st1" x1="144" y1="-61.2" x2="216.5" y2="-61.2"/>
			<line class="st1" x1="144" y1="-10.8" x2="216.5" y2="-10.8"/>
			<line class="st1" x1="144" y1="-25.2" x2="216.5" y2="-25.2"/>
			<line class="st1" x1="144" y1="-39.6" x2="216.5" y2="-39.6"/>
			<line class="st1" x1="144" y1="-54" x2="216.5" y2="-54"/>
			<line class="st1" x1="144" y1="-68.4" x2="216.5" y2="-68.4"/>
		</g>
		<g>
			<line class="st1" x1="72" y1="-3.6" x2="144.5" y2="-3.6"/>
			<line class="st1" x1="72" y1="-18" x2="144.5" y2="-18"/>
			<line class="st1" x1="72" y1="-32.4" x2="144.5" y2="-32.4"/>
			<line class="st1" x1="72" y1="-46.8" x2="144.5" y2="-46.8"/>
			<line class="st1" x1="72" y1="-61.2" x2="144.5" y2="-61.2"/>
			<line class="st1" x1="72" y1="-10.8" x2="144.5" y2="-10.8"/>
			<line class="st1" x1="72" y1="-25.2" x2="144.5" y2="-25.2"/>
			<line class="st1" x1="72" y1="-39.6" x2="144.5" y2="-39.6"/>
			<line class="st1" x1="72" y1="-54" x2="144.5" y2="-54"/>
			<line class="st1" x1="72" y1="-68.4" x2="144.5" y2="-68.4"/>
		</g>
		<g>
			<line class="st1" x1="0" y1="-3.6" x2="72.5" y2="-3.6"/>
			<line class="st1" x1="0" y1="-18" x2="72.5" y2="-18"/>
			<line class="st1" x1="0" y1="-32.4" x2="72.5" y2="-32.4"/>
			<line class="st1" x1="0" y1="-46.8" x2="72.5" y2="-46.8"/>
			<line class="st1" x1="0" y1="-61.2" x2="72.5" y2="-61.2"/>
			<line class="st1" x1="0" y1="-10.8" x2="72.5" y2="-10.8"/>
			<line class="st1" x1="0" y1="-25.2" x2="72.5" y2="-25.2"/>
			<line class="st1" x1="0" y1="-39.6" x2="72.5" y2="-39.6"/>
			<line class="st1" x1="0" y1="-54" x2="72.5" y2="-54"/>
			<line class="st1" x1="0" y1="-68.4" x2="72.5" y2="-68.4"/>
		</g>
	</g>
</pattern>
<path class="st2" d="M-249.9-6c-3.2,1.8-6.8,2.9-10.8,2.9c-11.9,0-21.5-9.6-21.5-21.5s9.6-21.5,21.5-21.5c3.9,0,7.6,1,10.8,2.9
	c-6.4,3.7-10.8,10.7-10.8,18.6C-260.6-16.7-256.3-9.7-249.9-6z"/>
<pattern  id="SVGID_1_" xlink:href="#_x31_0_lpi_10_x25_" patternTransform="matrix(0.483 -0.1294 0.1294 0.483 -2861.4766 -4806.5166)">
</pattern>
<path class="st3" d="M-239.1-24.7c0,8-4.3,14.9-10.8,18.6c-6.4-3.7-10.8-10.7-10.8-18.6c0-8,4.3-14.9,10.8-18.6
	C-243.5-39.6-239.1-32.6-239.1-24.7z"/>
<path class="st2" d="M-217.6-24.7c0,11.9-9.6,21.5-21.5,21.5c-3.9,0-7.6-1-10.8-2.9c6.4-3.7,10.8-10.7,10.8-18.6
	c0-8-4.3-14.9-10.8-18.6c3.2-1.8,6.8-2.9,10.8-2.9C-227.2-46.2-217.6-36.6-217.6-24.7z"/>
<g>
	<path d="M-111.2,53.9c-3.4,0-5.7,2.4-5.7,5.8c0,3.3,2.4,5.7,5.7,5.7h0c3.3,0,5.7-2.4,5.7-5.8C-105.5,56.3-107.9,53.9-111.2,53.9z
		 M-111.2,63.4L-111.2,63.4c-2.2,0-3.7-1.5-3.7-3.7c0-2.3,1.4-3.8,3.7-3.8c2.2,0,3.7,1.5,3.7,3.8C-107.5,61.9-109,63.4-111.2,63.4z"
		/>
	<path d="M-114.3,52.8h6.2c0.5,0,1-0.4,1-0.9l1.2-20.3c0-0.3-0.1-0.5-0.3-0.7c-0.2-0.2-0.5-0.3-0.7-0.3h-8.6c-0.3,0-0.5,0.1-0.7,0.3
		c-0.2,0.2-0.3,0.5-0.3,0.7l1.2,20.3C-115.2,52.3-114.8,52.8-114.3,52.8z M-108,32.5l-1.1,18.3h-4.3l-1.1-18.3H-108z"/>
	<path d="M-100.2,36.2c0.3,0,0.5-0.1,0.7-0.3L-88.7,25c0.4-0.4,0.4-1,0-1.4s-1-0.4-1.4,0l-10.9,10.9c-0.4,0.4-0.4,1,0,1.4
		C-100.8,36.1-100.5,36.2-100.2,36.2z"/>
	<path d="M-99.5,52.5c-0.4-0.4-1-0.4-1.4,0s-0.4,1,0,1.4l10.9,10.9c0.2,0.2,0.5,0.3,0.7,0.3s0.5-0.1,0.7-0.3c0.4-0.4,0.4-1,0-1.4
		L-99.5,52.5z"/>
	<path d="M-87.3,43.2h-12.9c-0.6,0-1,0.4-1,1s0.4,1,1,1h12.9c0.6,0,1-0.4,1-1S-86.8,43.2-87.3,43.2z"/>
	<path d="M-132.4,23.6c-0.4-0.4-1-0.4-1.4,0s-0.4,1,0,1.4l10.9,10.9c0.2,0.2,0.5,0.3,0.7,0.3s0.5-0.1,0.7-0.3c0.4-0.4,0.4-1,0-1.4
		L-132.4,23.6z"/>
	<path d="M-122.9,52.5l-10.9,10.9c-0.4,0.4-0.4,1,0,1.4c0.2,0.2,0.5,0.3,0.7,0.3s0.5-0.1,0.7-0.3l10.9-10.9c0.4-0.4,0.4-1,0-1.4
		S-122.5,52.1-122.9,52.5z"/>
	<path d="M-122.2,43.2h-12.9c-0.6,0-1,0.4-1,1s0.4,1,1,1h12.9c0.6,0,1-0.4,1-1S-121.6,43.2-122.2,43.2z"/>
</g>
<g>
	<path d="M-110.4,187.6c-12.4,0-22.5,10.1-22.5,22.5s10.1,22.5,22.5,22.5s22.5-10.1,22.5-22.5S-98,187.6-110.4,187.6z M-110.4,230.7
		c-11.3,0-20.5-9.2-20.5-20.5s9.2-20.5,20.5-20.5c11.3,0,20.5,9.2,20.5,20.5S-99.1,230.7-110.4,230.7z"/>
	<path d="M-109.5,209l-4.6-15.5c-0.2-0.5-0.7-0.8-1.2-0.7c-0.5,0.1-0.9,0.7-0.7,1.2l3.9,15.7c-0.1,0.1-0.1,0.3-0.2,0.4l-10.4,4.6
		c-0.5,0.2-0.7,0.8-0.5,1.3c0.2,0.5,0.8,0.8,1.3,0.6l10.7-3.9c0.3,0.1,0.5,0.2,0.8,0.2c1.1,0,2.1-0.9,2.1-2.1
		C-108.3,210-108.8,209.3-109.5,209z"/>
	<circle cx="-110.4" cy="228.3" r="1.1"/>
	<path d="M-98.8,222.5c-0.4,0.4-0.4,1.1,0,1.5c0.4,0.4,1.1,0.4,1.5,0c0.4-0.4,0.4-1.1,0-1.5S-98.4,222.1-98.8,222.5z"/>
	<path d="M-92.9,209.8c-0.6,0-1.1,0.5-1.1,1.1c0,0.6,0.5,1.1,1.1,1.1c0.6,0,1.1-0.5,1.1-1.1C-91.9,210.3-92.3,209.8-92.9,209.8z"/>
	<path d="M-98.8,197.8c-0.4,0.4-0.4,1.1,0,1.5c0.4,0.4,1.1,0.4,1.5,0s0.4-1.1,0-1.5C-97.7,197.4-98.4,197.4-98.8,197.8z"/>
	<circle cx="-110.4" cy="193.4" r="1.1"/>
	<path d="M-122,199.3c0.4-0.4,0.4-1.1,0-1.5c-0.4-0.4-1.1-0.4-1.5,0c-0.4,0.4-0.4,1.1,0,1.5S-122.4,199.7-122,199.3z"/>
	<path d="M-127.8,209.8c-0.6,0-1.1,0.5-1.1,1.1c0,0.6,0.5,1.1,1.1,1.1c0.6,0,1.1-0.5,1.1-1.1C-126.8,210.3-127.3,209.8-127.8,209.8z
		"/>
	<path d="M-123.5,222.5c-0.4,0.4-0.4,1.1,0,1.5c0.4,0.4,1.1,0.4,1.5,0c0.4-0.4,0.4-1.1,0-1.5C-122.4,222.1-123.1,222.1-123.5,222.5z
		"/>
</g>
<g>
	<path d="M-250.7,65.4L-250.7,65.4c-3.3,0-5.7-2.4-5.7-5.7c0-3.4,2.3-5.8,5.7-5.8c3.3,0,5.7,2.4,5.7,5.8
		C-245,63-247.4,65.4-250.7,65.4z M-250.7,55.9c-2.2,0-3.7,1.5-3.7,3.8c0,2.2,1.5,3.7,3.7,3.7h0c2.2,0,3.7-1.5,3.7-3.7
		C-247,57.4-248.5,55.9-250.7,55.9z"/>
	<path d="M-247.6,52.8h-6.2c-0.5,0-1-0.4-1-0.9l-1.2-20.3c0-0.3,0.1-0.5,0.3-0.7c0.2-0.2,0.5-0.3,0.7-0.3h8.6c0.3,0,0.5,0.1,0.7,0.3
		c0.2,0.2,0.3,0.5,0.3,0.7l-1.2,20.3C-246.6,52.3-247.1,52.8-247.6,52.8z M-252.8,50.8h4.3l1.1-18.3h-6.4L-252.8,50.8z"/>
	<g>
		<path d="M-239.7,36.2c-0.3,0-0.5-0.1-0.7-0.3c-0.4-0.4-0.4-1,0-1.4l10.9-10.9c0.4-0.4,1-0.4,1.4,0s0.4,1,0,1.4L-239,35.9
			C-239.2,36.1-239.5,36.2-239.7,36.2z"/>
		<path d="M-228.9,65.1c-0.3,0-0.5-0.1-0.7-0.3l-10.9-10.9c-0.4-0.4-0.4-1,0-1.4s1-0.4,1.4,0l10.9,10.9c0.4,0.4,0.4,1,0,1.4
			C-228.4,65-228.6,65.1-228.9,65.1z"/>
		<path d="M-226.9,45.2h-12.9c-0.6,0-1-0.4-1-1s0.4-1,1-1h12.9c0.6,0,1,0.4,1,1S-226.3,45.2-226.9,45.2z"/>
	</g>
	<g>
		<path d="M-261.7,36.2c-0.3,0-0.5-0.1-0.7-0.3L-273.3,25c-0.4-0.4-0.4-1,0-1.4s1-0.4,1.4,0l10.9,10.9c0.4,0.4,0.4,1,0,1.4
			C-261.2,36.1-261.4,36.2-261.7,36.2z"/>
		<path d="M-272.6,65.1c-0.3,0-0.5-0.1-0.7-0.3c-0.4-0.4-0.4-1,0-1.4l10.9-10.9c0.4-0.4,1-0.4,1.4,0s0.4,1,0,1.4l-10.9,10.9
			C-272.1,65-272.3,65.1-272.6,65.1z"/>
		<path d="M-261.7,45.2h-12.9c-0.6,0-1-0.4-1-1s0.4-1,1-1h12.9c0.6,0,1,0.4,1,1S-261.1,45.2-261.7,45.2z"/>
	</g>
</g>
<g>
	<path d="M-249.9,99.7c-0.1,0-0.2,0-0.3,0l-30.4-8.3c-0.4-0.1-0.7-0.5-0.7-1c0-0.4,0.3-0.8,0.7-1l30.4-8.8c0.2-0.1,0.4-0.1,0.6,0
		l30.4,8.8c0.4,0.1,0.7,0.5,0.7,1c0,0.4-0.3,0.8-0.7,1l-30.4,8.3C-249.7,99.7-249.8,99.7-249.9,99.7z M-276.6,90.4l26.7,7.3
		l26.7-7.3l-26.7-7.7L-276.6,90.4z"/>
	<path d="M-249.4,114.9c-0.1,0-0.2,0-0.3-0.1l-18.3-6.4c-0.4-0.1-0.7-0.5-0.7-0.9c0-0.4,0.1-9.6,4.9-13.2c0.2-0.2,0.6-0.3,0.9-0.2
		l13.1,3.6l12.8-3.5c0.1,0,0.1,0,0.2,0l1.2-0.1c0.2,0,0.5,0.1,0.7,0.2c4.8,3.7,4.9,12.8,4.9,13.2c0,0.4-0.3,0.8-0.7,0.9l-18.3,6.4
		C-249.2,114.9-249.3,114.9-249.4,114.9z M-266.7,106.8l17.3,6.1l17.3-6.1c-0.1-2-0.7-8-3.8-10.7l-0.7,0l-13,3.5c-0.2,0-0.4,0-0.5,0
		l-12.8-3.5C-266,98.9-266.6,104.8-266.7,106.8z"/>
	<path d="M-224.6,108.2c-0.6,0-1-0.4-1-1V92.7l-24.3-1.6c-0.6,0-1-0.5-0.9-1.1c0-0.6,0.5-1,1.1-0.9l25.2,1.6c0.5,0,0.9,0.5,0.9,1
		v15.4C-223.6,107.7-224.1,108.2-224.6,108.2z"/>
	<path d="M-224.6,112.5c-1.8,0-3.3-1.5-3.3-3.3s1.5-3.3,3.3-3.3s3.3,1.5,3.3,3.3S-222.8,112.5-224.6,112.5z M-224.6,108
		c-0.7,0-1.3,0.6-1.3,1.3s0.6,1.3,1.3,1.3s1.3-0.6,1.3-1.3S-223.9,108-224.6,108z"/>
	<path d="M-222.4,128.1h-4.6c-0.3,0-0.6-0.1-0.8-0.3c-0.2-0.2-0.3-0.5-0.2-0.8l2.3-15.6c0.1-0.5,0.5-0.9,1-0.9s0.9,0.4,1,0.9
		l2.3,15.6c0,0.3,0,0.6-0.2,0.8C-221.8,128-222.1,128.1-222.4,128.1z M-225.8,126.1h2.3l-1.1-7.7L-225.8,126.1z"/>
</g>
<g>
	<path d="M-249.9,184.2c-12.4,0-22.5-10.1-22.5-22.5s10.1-22.5,22.5-22.5c12.4,0,22.5,10.1,22.5,22.5S-237.5,184.2-249.9,184.2z
		 M-249.9,141.2c-11.3,0-20.5,9.2-20.5,20.5s9.2,20.5,20.5,20.5c11.3,0,20.5-9.2,20.5-20.5S-238.6,141.2-249.9,141.2z"/>
	<circle cx="-249.9" cy="162.4" r="2.1"/>
	<path d="M-249.3,163.8l-12.1,4.4c-0.5,0.2-1.1-0.1-1.3-0.6c-0.2-0.5,0.1-1,0.5-1.3l11.8-5.3c0.7-0.3,1.6,0,1.9,0.7
		S-248.5,163.4-249.3,163.8C-249.3,163.8-249.3,163.8-249.3,163.8z"/>
	<path d="M-251.2,162.8l-4.3-17.2c-0.1-0.5,0.2-1.1,0.7-1.2c0.5-0.1,1,0.2,1.2,0.7l5.1,17c0.2,0.7-0.2,1.5-0.9,1.8
		S-251,163.6-251.2,162.8C-251.2,162.9-251.2,162.8-251.2,162.8z"/>
	<circle cx="-249.9" cy="179.9" r="1.1"/>
	<circle cx="-237.5" cy="174.8" r="1.1"/>
	<circle cx="-232.4" cy="162.4" r="1.1"/>
	<circle cx="-237.5" cy="150.1" r="1.1"/>
	<circle cx="-249.9" cy="145" r="1.1"/>
	<circle cx="-262.2" cy="150.1" r="1.1"/>
	<circle cx="-267.3" cy="162.4" r="1.1"/>
	<circle cx="-262.2" cy="174.8" r="1.1"/>
</g>
<path d="M-100.4-69.7c-3.8,0-7.5,1-10.8,2.8c-3.3-1.8-7-2.8-10.8-2.8c-12.4,0-22.5,10.1-22.5,22.5c0,12.4,10.1,22.5,22.5,22.5
	c3.8,0,7.5-1,10.8-2.8c3.3,1.8,7,2.8,10.8,2.8c12.4,0,22.5-10.1,22.5-22.5C-77.9-59.6-88-69.7-100.4-69.7z M-111.2-29.7
	c-0.5-0.3-0.9-0.6-1.4-0.9l4.1-1.1C-109.3-31-110.2-30.3-111.2-29.7z M-105.9-34.4l-0.7,0.2l0,0l-7.8,2.1c-0.8-0.8-1.6-1.6-2.2-2.4
	l9.1-2.4l0,0l3.9-1.1C-104.2-36.8-105-35.6-105.9-34.4z M-102.6-40.4l-5.2,1.4l0,0l-10,2.7c-0.5-0.8-1-1.7-1.4-2.6l10.6-2.9v0
	l6.8-1.8C-102-42.5-102.2-41.4-102.6-40.4z M-109.3-43.6L-109.3-43.6l-10.7,2.9c-0.3-0.9-0.5-1.9-0.7-2.8l10.8-2.9v0l8.3-2.2
	c0,0.5,0.1,1,0.1,1.5c0,0.5,0,1-0.1,1.5L-109.3-43.6z M-110.5-48.3L-110.5-48.3l-10.4,2.8c0-0.6-0.1-1.1-0.1-1.7c0-0.5,0-0.9,0-1.3
	l9.8-2.6v0l8.6-2.3c0.3,0.9,0.5,1.9,0.7,2.8L-110.5-48.3z M-111.8-53L-111.8-53l-8.9,2.4c0.2-1.1,0.5-2.2,0.8-3.2l7.5-2v0l7.8-2.1
	c0.5,0.8,1,1.7,1.4,2.6L-111.8-53z M-113-57.7L-113-57.7l-5.9,1.6c0.6-1.3,1.4-2.5,2.2-3.6l3.1-0.8v0l5.7-1.5
	c0.8,0.8,1.5,1.6,2.2,2.4L-113-57.7z M-114.2-62.4c0.9-0.8,1.9-1.6,3-2.2c0.5,0.3,1,0.7,1.5,1L-114.2-62.4z M-121.9-26.7
	c-11.3,0-20.5-9.2-20.5-20.5c0-11.3,9.2-20.5,20.5-20.5c3,0,6,0.7,8.8,2c-6.1,4.2-9.8,11.1-9.8,18.6c0,7.4,3.7,14.4,9.8,18.6
	C-115.9-27.3-118.9-26.7-121.9-26.7z M-100.4-26.7c-3,0-6-0.7-8.8-2c6.1-4.2,9.8-11.1,9.8-18.6c0-7.4-3.7-14.4-9.8-18.6
	c2.7-1.3,5.7-2,8.8-2c11.3,0,20.5,9.2,20.5,20.5C-79.9-35.9-89.1-26.7-100.4-26.7z"/>
<path d="M-79.7,116.8l-30.4-8.8c-0.2-0.1-0.4-0.1-0.6,0l-30.4,8.8c-0.4,0.1-0.7,0.5-0.7,1c0,0.4,0.3,0.8,0.7,1l15.4,4.2
	c-3.5,4.2-3.5,11.6-3.5,11.9c0,0.4,0.3,0.8,0.7,0.9l18.3,6.4c0.1,0,0.2,0.1,0.3,0.1s0.2,0,0.3-0.1l18.3-6.4c0.4-0.1,0.7-0.5,0.7-0.9
	c0-0.4-0.1-8-3.7-12.1l8.2-2.2v13c-1.3,0.4-2.3,1.7-2.3,3.1c0,1.4,0.9,2.6,2.2,3.1l-2.2,14.6c0,0.3,0,0.6,0.2,0.8
	c0.2,0.2,0.5,0.3,0.8,0.3h4.6c0.3,0,0.6-0.1,0.8-0.3c0.2-0.2,0.3-0.5,0.2-0.8l-2.2-14.6c1.3-0.5,2.2-1.7,2.2-3.1
	c0-1.5-1-2.7-2.3-3.1v-13.6l4.4-1.2c0.4-0.1,0.7-0.5,0.7-1C-79,117.3-79.3,116.9-79.7,116.8z M-92.6,134.1l-17.3,6.1l-17.3-6.1
	c0.1-2,0.7-7.9,3.7-10.6l12.8,3.5c0.2,0,0.4,0,0.5,0l13-3.5l0.7,0C-93.3,126.1-92.8,132.1-92.6,134.1z M-84,153.4h-2.3l1.1-7.7
	L-84,153.4z M-83.8,136.6c0,0.7-0.6,1.3-1.3,1.3s-1.3-0.6-1.3-1.3s0.6-1.3,1.3-1.3c0.3,0,0.6,0.1,0.8,0.3c0,0,0,0,0,0
	c0.1,0.1,0.2,0.2,0.2,0.3c0,0,0,0,0,0C-83.9,136.1-83.8,136.3-83.8,136.6z M-85.2,118.1l-25.1-1.6c-0.6,0-1,0.4-1.1,0.9
	c0,0.6,0.4,1,0.9,1.1l19.3,1.3l-19.2,5.3l-13.1-3.6c0,0,0,0,0,0l-13.6-3.7l26.7-7.7l26.7,7.7L-85.2,118.1z"/>
<path d="M16.6-25.5c-7.3,0-13.3-5.9-13.3-13.3S9.3-52,16.6-52c7.3,0,13.3,5.9,13.3,13.3S23.9-25.5,16.6-25.5z M16.6-50
	C10.4-50,5.3-45,5.3-38.8s5.1,11.3,11.3,11.3c6.2,0,11.3-5.1,11.3-11.3S22.8-50,16.6-50z"/>
<path d="M57.9-25.5c-7.3,0-13.3-5.9-13.3-13.3S50.6-52,57.9-52s13.3,5.9,13.3,13.3S65.2-25.5,57.9-25.5z M57.9-50
	c-6.2,0-11.3,5.1-11.3,11.3s5.1,11.3,11.3,11.3s11.3-5.1,11.3-11.3S64.1-50,57.9-50z"/>
<path d="M33.4-37.8H16.6c-0.3,0-0.7-0.2-0.8-0.5c-0.2-0.3-0.2-0.7-0.1-1l9.6-20.3c0.2-0.3,0.5-0.6,0.9-0.6H50c0.4,0,0.7,0.2,0.9,0.6
	c0.2,0.3,0.1,0.8-0.1,1.1L34.2-38.1C34-37.9,33.7-37.8,33.4-37.8z M18.2-39.8H33L47.9-58h-21L18.2-39.8z"/>
<path d="M33.4-37.8c-0.4,0-0.8-0.3-0.9-0.7l-9.1-24.7c-0.2-0.5,0.1-1.1,0.6-1.3c0.5-0.2,1.1,0.1,1.3,0.6l9.1,24.7
	c0.2,0.5-0.1,1.1-0.6,1.3C33.7-37.8,33.5-37.8,33.4-37.8z"/>
<path d="M57.8-38c-0.4,0-0.8-0.2-0.9-0.6l-9.9-25.1c-0.1-0.3-0.1-0.7,0.1-0.9s0.5-0.4,0.8-0.4h7.2c1.2,0,2.6,1.3,2.8,2.8
	c0.1,0.7,0.2,3-3.2,4.2c-0.5,0.2-1.1-0.1-1.3-0.6c-0.2-0.5,0.1-1.1,0.6-1.3c0.8-0.3,2-0.9,1.9-1.9c-0.1-0.7-0.6-1.2-0.9-1.3l-5.8,0
	l9.3,23.8c0.2,0.5-0.1,1.1-0.6,1.3C58.1-38,58-38,57.8-38z"/>
<path d="M30.1-63.5h-9.9c-0.6,0-1-0.4-1-1s0.4-1,1-1h9.9c0.6,0,1,0.4,1,1S30.6-63.5,30.1-63.5z"/>
<circle class="st4" cx="111.2" cy="-38.8" r="12.3"/>
<circle class="st4" cx="152.5" cy="-38.8" r="12.3"/>
<polygon class="st4" points="111.2,-38.8 120.8,-59 144.6,-59 128,-38.8 "/>
<line class="st4" x1="119" y1="-63.5" x2="128" y2="-38.8"/>
<path class="st4" d="M152.4-39l-9.9-25.1c0,0,5.8,0,7.2,0c1.4,0,3.7,3.6-0.8,5.1"/>
<line class="st4" x1="114.8" y1="-64.5" x2="124.7" y2="-64.5"/>
<path d="M40.7,53H24.5c-5.9,0-10.7-4.8-10.7-10.7v-21c0-1.7,1.4-3.1,3.1-3.1h31.5c1.7,0,3.1,1.4,3.1,3.1v21
	C51.4,48.2,46.6,53,40.7,53z M16.8,20.3c-0.6,0-1.1,0.5-1.1,1.1v21c0,4.8,3.9,8.7,8.7,8.7h16.2c4.8,0,8.7-3.9,8.7-8.7v-21
	c0-0.6-0.5-1.1-1.1-1.1H16.8z"/>
<path d="M54.6,43.7h-5.2V23.8h9.8c3.4,0,6.2,2.8,6.2,6.2v2.8C65.4,38.8,60.6,43.7,54.6,43.7z M51.4,41.7h3.2c4.9,0,8.8-4,8.8-8.8V30
	c0-2.3-1.9-4.2-4.2-4.2h-7.8V41.7z"/>
<g>
	<path d="M18.4,17.4c-0.4,0-0.8-0.2-0.9-0.6c-0.2-0.5,0-1.1,0.6-1.3c0.9-0.4,1.9-0.8,2.5-1.4c0.5-0.5,0.7-1.3,0.4-1.9
		c-0.3-0.4-0.8-0.7-1.5-0.9c-0.3-0.1-0.5-0.2-0.8-0.4c-1.7-0.8-2.8-2.4-3.1-4.1c-0.3-2,0.7-3.9,2.5-4.7c0.5-0.2,1.1,0,1.3,0.5
		c0.2,0.5,0,1.1-0.5,1.3c-0.9,0.4-1.4,1.5-1.3,2.6c0.2,1,0.9,2,2,2.6c0.2,0.1,0.5,0.2,0.7,0.3c0.8,0.4,1.8,0.8,2.4,1.7
		c0.9,1.4,0.3,3.2-0.6,4.3c-0.9,1-2.2,1.5-3.2,1.9C18.7,17.4,18.6,17.4,18.4,17.4z"/>
	<path d="M31.6,17.4c-0.4,0-0.8-0.2-0.9-0.6c-0.2-0.5,0-1.1,0.6-1.3c0.9-0.4,1.9-0.8,2.5-1.4c0.5-0.5,0.7-1.3,0.4-1.9
		c-0.3-0.4-0.8-0.7-1.5-0.9c-0.3-0.1-0.5-0.2-0.8-0.4c-1.7-0.8-2.8-2.4-3.1-4.1c-0.3-2,0.8-3.9,2.5-4.7c0.5-0.2,1.1,0,1.3,0.5
		c0.2,0.5,0,1.1-0.5,1.3c-0.9,0.4-1.4,1.5-1.3,2.6c0.2,1,0.9,2,2,2.6c0.2,0.1,0.5,0.2,0.7,0.3c0.8,0.4,1.8,0.8,2.4,1.7
		c0.9,1.4,0.3,3.2-0.6,4.3c-0.9,1-2.2,1.5-3.2,1.9C31.9,17.4,31.8,17.4,31.6,17.4z"/>
	<path d="M44.9,17.4c-0.4,0-0.8-0.2-0.9-0.6c-0.2-0.5,0-1.1,0.6-1.3c0.9-0.4,1.9-0.8,2.5-1.4c0.5-0.5,0.7-1.3,0.4-1.9
		c-0.3-0.4-0.8-0.7-1.5-0.9c-0.3-0.1-0.5-0.2-0.8-0.4c-1.7-0.8-2.8-2.4-3.1-4.1c-0.3-2,0.8-3.9,2.5-4.7c0.5-0.2,1.1,0,1.3,0.5
		c0.2,0.5,0,1.1-0.5,1.3c-0.9,0.4-1.4,1.5-1.3,2.6c0.2,1,0.9,2,2,2.6c0.2,0.1,0.5,0.2,0.7,0.3c0.8,0.4,1.8,0.8,2.4,1.7
		c0.9,1.4,0.3,3.2-0.6,4.3c-0.9,1-2.2,1.5-3.2,1.9C45.1,17.4,45,17.4,44.9,17.4z"/>
</g>
<g>
	<path d="M64.7,102.9c0.3,0,0.5-0.1,0.7-0.3l2.8-2.8c0.4-0.4,0.4-1,0-1.4s-1-0.4-1.4,0l-2.8,2.8c-0.4,0.4-0.4,1,0,1.4
		C64.2,102.8,64.4,102.9,64.7,102.9z"/>
	<path d="M65.4,108.9c-0.4-0.4-1-0.4-1.4,0c-0.4,0.4-0.4,1,0,1.4l2.8,2.8c0.2,0.2,0.5,0.3,0.7,0.3s0.5-0.1,0.7-0.3
		c0.4-0.4,0.4-1,0-1.4L65.4,108.9z"/>
	<path d="M69.8,104.7h-4c-0.6,0-1,0.4-1,1s0.4,1,1,1h4c0.6,0,1-0.4,1-1S70.4,104.7,69.8,104.7z"/>
	<path d="M6.3,98.3c-0.4-0.4-1-0.4-1.4,0s-0.4,1,0,1.4l2.8,2.8c0.2,0.2,0.5,0.3,0.7,0.3s0.5-0.1,0.7-0.3c0.4-0.4,0.4-1,0-1.4
		L6.3,98.3z"/>
	<path d="M7.7,108.9l-2.8,2.8c-0.4,0.4-0.4,1,0,1.4c0.2,0.2,0.5,0.3,0.7,0.3s0.5-0.1,0.7-0.3l2.8-2.8c0.4-0.4,0.4-1,0-1.4
		S8.1,108.5,7.7,108.9z"/>
	<path d="M8.3,105.7c0-0.6-0.4-1-1-1h-4c-0.6,0-1,0.4-1,1s0.4,1,1,1h4C7.8,106.7,8.3,106.3,8.3,105.7z"/>
	<path d="M59.2,99.4h-0.4c-2.3-12.8-11.5-22.1-22.3-22.1c-10.8,0-20.1,9.2-22.3,22.1h-0.4c-2.4,0-4.3,1.9-4.3,4.3v3.8
		c0,2.4,1.9,4.3,4.3,4.3H18c2.2,10.4,9.7,18.2,18.5,18.2s16.3-7.7,18.5-18.2h4.2c2.4,0,4.3-1.9,4.3-4.3v-3.8
		C63.5,101.3,61.6,99.4,59.2,99.4z M36.5,79.2c9.8,0,18.2,8.4,20.4,20.2h-1.8c-2.1-10.7-9.6-18.7-18.6-18.7s-16.5,8-18.6,18.7h-1.8
		C18.3,87.7,26.7,79.2,36.5,79.2z M17.2,109.8h-3.3c-1.3,0-2.3-1-2.3-2.3v-3.8c0-1.3,1-2.3,2.3-2.3h3.3V109.8z M36.5,128
		c-9.5,0-17.2-10.1-17.2-22.6s7.7-22.6,17.2-22.6s17.2,10.1,17.2,22.6S46,128,36.5,128z M61.5,107.5c0,1.3-1,2.3-2.3,2.3h-3.3v-8.4
		h3.3c1.3,0,2.3,1,2.3,2.3V107.5z"/>
	<path d="M35.2,105.3V104c0-2-1.6-3.7-3.7-3.7h-8.3c-1.4,0-2.6,1.2-2.6,2.6v4.1c0,2.5,2,4.5,4.5,4.5H29
		C32.4,111.6,35.2,108.8,35.2,105.3z M33.3,105.3c0,2.4-2,4.3-4.3,4.3h-3.8c-1.4,0-2.6-1.2-2.6-2.6v-4.1c0-0.4,0.3-0.7,0.7-0.7h8.3
		c1,0,1.8,0.8,1.8,1.8V105.3z"/>
	<path d="M37.1,104v1.3c0,3.4,2.8,6.2,6.2,6.2h3.8c2.5,0,4.5-2,4.5-4.5v-4.1c0-1.4-1.2-2.6-2.6-2.6h-8.3
		C38.7,100.4,37.1,102,37.1,104z M49.7,102.9v4.1c0,1.4-1.2,2.6-2.6,2.6h-3.8c-2.4,0-4.3-2-4.3-4.3V104c0-1,0.8-1.8,1.8-1.8H49
		C49.4,102.2,49.7,102.6,49.7,102.9z"/>
	<path d="M41.3,119.5c-3.2,1.2-6.4,1.2-9.6,0c-0.5-0.2-1.1,0.1-1.3,0.6s0.1,1.1,0.6,1.3c1.8,0.7,3.7,1.1,5.5,1.1s3.7-0.4,5.5-1.1
		c0.5-0.2,0.8-0.8,0.6-1.3S41.9,119.3,41.3,119.5z"/>
</g>
<g>
	<line class="st4" x1="157.1" y1="101.9" x2="159.9" y2="99"/>
	<line class="st4" x1="157.1" y1="109.6" x2="159.9" y2="112.4"/>
	<line class="st4" x1="158.2" y1="105.7" x2="162.2" y2="105.7"/>
</g>
<g>
	<line class="st4" x1="100.8" y1="101.9" x2="98" y2="99"/>
	<line class="st4" x1="100.8" y1="109.6" x2="98" y2="112.4"/>
	<line class="st4" x1="99.7" y1="105.7" x2="95.7" y2="105.7"/>
</g>
<ellipse class="st2" cx="128.9" cy="105.4" rx="18.2" ry="23.6"/>
<path class="st2" d="M110.6,110.8h-4.3c-1.8,0-3.3-1.5-3.3-3.3v-3.8c0-1.8,1.5-3.3,3.3-3.3h4.3V110.8z"/>
<path class="st5" d="M150.5,100.4c-1.9-12.6-10.8-22.1-21.6-22.1s-19.7,9.5-21.6,22.1"/>
<path class="st2" d="M147.3,110.8h4.3c1.8,0,3.3-1.5,3.3-3.3v-3.8c0-1.8-1.5-3.3-3.3-3.3h-4.3V110.8z"/>
<path class="st5" d="M121.4,110.6h-3.8c-1.9,0-3.5-1.6-3.5-3.5v-4.1c0-0.9,0.7-1.6,1.6-1.6h8.3c1.5,0,2.7,1.2,2.7,2.7v1.3
	C126.7,108.2,124.3,110.6,121.4,110.6z"/>
<path class="st5" d="M135.7,110.6h3.8c1.9,0,3.5-1.6,3.5-3.5v-4.1c0-0.9-0.7-1.6-1.6-1.6h-8.3c-1.5,0-2.7,1.2-2.7,2.7v1.3
	C130.4,108.2,132.8,110.6,135.7,110.6z"/>
<path class="st4" d="M123.8,120.4c3.4,1.3,6.9,1.3,10.3,0"/>
<path class="st6" d="M204.6,148l-0.2,0.2l0.2-4.1c0,0.3,0,1.7,0.2,4L204.6,148z"/>
<path class="st6" d="M208.5,169.1h-7.9c1.8-6.4,2.8-12,3.4-16.3h1.2C205.7,157,206.7,162.7,208.5,169.1z"/>
<path class="st6" d="M197,179.6c0.9-2.3,1.8-4.5,2.5-6.7h10.3c0.7,2.2,1.5,4.4,2.5,6.7H197z"/>
<path class="st6" d="M219.4,193.9h-7.6c-0.1-1.8-0.8-3.4-2-4.7c-1.3-1.4-3.2-2.2-5.2-2.2c-2,0-3.9,0.9-5.2,2.2
	c-1.2,1.2-1.9,2.9-2,4.7h-7.6c2.2-3.5,4-7.1,5.6-10.6h18.5C215.4,186.8,217.3,190.4,219.4,193.9z"/>
<rect x="194.8" y="179.6" class="st7" width="19.5" height="3.8"/>
<rect x="198.8" y="169.1" class="st7" width="11.6" height="3.8"/>
<path class="st7" d="M203.5,172.8c-0.4,2.2-0.9,4.5-1.4,6.7"/>
<path class="st7" d="M201.2,183.3c-0.6,2.2-1.2,4.2-1.8,5.9"/>
<path class="st7" d="M204.1,169.1c0.3-2.2,0.5-4.3,0.5-6.1c0,1.9,0.2,4,0.5,6.1"/>
<path class="st7" d="M209.8,189.2c-0.6-1.7-1.2-3.7-1.8-5.9"/>
<path class="st7" d="M207,179.6c-0.5-2.2-1-4.5-1.4-6.7"/>
<line class="st7" x1="200.4" y1="162.9" x2="208.7" y2="162.9"/>
<line class="st7" x1="192.7" y1="188.9" x2="199.4" y2="188.9"/>
<line class="st7" x1="192.7" y1="188.9" x2="197" y2="193.7"/>
<line class="st7" x1="195.4" y1="184" x2="199.6" y2="188.8"/>
<line class="st7" x1="216.6" y1="188.9" x2="209.9" y2="188.9"/>
<line class="st7" x1="216.6" y1="188.9" x2="212.3" y2="193.7"/>
<line class="st7" x1="213.9" y1="184" x2="209.6" y2="188.8"/>
<polygon class="st7" points="207,149.8 206.1,152.7 203.1,152.7 202.1,149.8 204.4,148.2 204.6,148 204.7,148.1 "/>
<line class="st7" x1="202.1" y1="179.6" x2="199.6" y2="173.2"/>
<line class="st7" x1="207" y1="179.6" x2="209.6" y2="173.2"/>
<path d="M61.1,154.8c1-1,1.5-2.3,1.5-3.7c0-1.4-0.5-2.7-1.5-3.7c-1-1-2.3-1.5-3.7-1.5s-2.7,0.5-3.7,1.5L43.1,158l-5.4-1.6
	c0.7-0.9,0.7-2.1-0.1-2.9l-1.6-1.6c-0.8-0.8-2.3-0.8-3.1,0l-2.4,2.4L15,149.5c-0.4-0.1-0.7,0-1,0.2l-3.2,3.2
	c-0.2,0.2-0.3,0.5-0.3,0.8c0,0.3,0.2,0.6,0.5,0.7l17.3,9.4l4.5,4.5l-4,4c-1.1,1.1-2.1,2.4-2.8,3.7l-0.6,1.1
	c-1.3-0.3-5.3-1.3-8.9-2.3c-0.3-0.1-0.7,0-1,0.3l-2.2,2.2c-0.2,0.2-0.3,0.5-0.3,0.8c0,0.3,0.2,0.6,0.4,0.7l7.8,5.8l-0.1,0.2
	c-0.4,0.8-0.3,1.7,0.3,2.3c0.4,0.4,0.9,0.6,1.4,0.6c0.3,0,0.6-0.1,0.9-0.2l0.2-0.1l5.8,7.8c0.2,0.2,0.4,0.4,0.7,0.4c0,0,0,0,0.1,0
	c0.3,0,0.5-0.1,0.7-0.3l2.2-2.2c0.3-0.3,0.4-0.6,0.3-1c-1-3.6-2-7.7-2.3-8.9l1.1-0.6c1.3-0.8,2.6-1.7,3.7-2.8l4-4l4.5,4.5l9.4,17.3
	c0.2,0.3,0.4,0.5,0.7,0.5c0,0,0.1,0,0.1,0c0.3,0,0.5-0.1,0.7-0.3l3.2-3.2c0.3-0.3,0.4-0.6,0.2-1l-4.7-15.6l2.4-2.4
	c0.4-0.4,0.6-1,0.6-1.5c0-0.6-0.2-1.1-0.6-1.5l-1.6-1.6c-0.8-0.8-2.1-0.8-2.9-0.1l-1.6-5.4L61.1,154.8z M30.6,193l-5-6.6l4-2.3
	c0.4,1.8,1.2,5,2,7.9L30.6,193z M32.7,154.9l1.6-1.6c0.1-0.1,0.2-0.1,0.3,0l1.6,1.6c0.1,0.1,0.1,0.2,0,0.3l-0.6,0.6l-0.6-0.2
	L32.7,154.9z M29.6,162.4c-0.1-0.1-0.1-0.1-0.2-0.2l-16.2-8.8l1.8-1.8l19.6,5.9l1,0.3c0,0,0,0,0,0l5.9,1.8l-7.3,7.3L29.6,162.4z
	 M15.5,177.9l1-1c2.9,0.8,6.1,1.6,7.9,2l-2.3,4L15.5,177.9z M34.7,178.2c-1,1-2.1,1.8-3.3,2.5l-8.6,4.9l0.4-0.7c0,0,0,0,0,0l3.4-6.1
	c0,0,0,0,0,0l1-1.8c0.7-1.2,1.5-2.3,2.5-3.3l24.9-24.9c0.6-0.6,1.4-0.9,2.3-0.9s1.7,0.3,2.3,0.9c0.6,0.6,0.9,1.4,0.9,2.3
	s-0.3,1.7-0.9,2.3L34.7,178.2z M53.3,172.3c0.1-0.1,0.2-0.1,0.3,0l1.6,1.6c0,0,0.1,0.1,0.1,0.1c0,0,0,0.1-0.1,0.1l-1.6,1.6l-0.7-2.2
	l-0.2-0.6L53.3,172.3z M50.6,172.9C50.6,172.9,50.6,172.9,50.6,172.9l0.3,1l5.9,19.6l-1.8,1.8l-8.8-16.2c0-0.1-0.1-0.2-0.2-0.2
	l-4.6-4.6l7.3-7.3L50.6,172.9z"/>
<path class="st4" d="M154.5,154L129.5,179c-1,1-2.2,1.9-3.5,2.6l-8.9,5c-0.8,0.5-1.7-0.4-1.3-1.3l0.6-1l3.4-6.1l1-1.8
	c0.7-1.3,1.6-2.4,2.6-3.5l24.9-24.9c1.6-1.6,4.3-1.6,5.9,0c0.8,0.8,1.2,1.9,1.2,3C155.7,152.1,155.3,153.2,154.5,154z"/>
<path class="st4" d="M116.5,184.4l-8.5-6.4l2.2-2.2c0,0,8.8,2.4,9.5,2.4l0.1,0.1L116.5,184.4z"/>
<path class="st4" d="M118.2,186.1l6.4,8.5l2.2-2.2c0,0-2.4-8.8-2.4-9.5l-0.1-0.1L118.2,186.1z"/>
<polygon class="st4" points="137.5,159.1 128.3,168.3 123,163.1 105.6,153.6 108.8,150.4 125,155.3 130,156.8 "/>
<path class="st4" d="M131,155.8l-1,1l-5-1.5l2.8-2.8c0.5-0.5,1.2-0.5,1.7,0l1.6,1.6C131.5,154.6,131.5,155.3,131,155.8z"/>
<polygon class="st4" points="143.4,165.1 134.2,174.3 139.5,179.6 149,197 152.1,193.8 147.2,177.6 145.7,172.6 "/>
<path class="st4" d="M146.8,171.5l-1,1l1.5,5l2.8-2.8c0.5-0.5,0.5-1.2,0-1.7l-1.6-1.6C148,171.1,147.2,171.1,146.8,171.5z"/>
<path class="st4" d="M20.2,38.3c0,0-0.8,9.1,5.8,9.1"/>
</svg>
