<?xml version="1.0" encoding="utf-8"?>
<!-- Generator: Adobe Illustrator 25.2.1, SVG Export Plug-In . SVG Version: 6.00 Build 0)  -->
<svg version="1.1" id="Layer_1" xmlns="http://www.w3.org/2000/svg" xmlns:xlink="http://www.w3.org/1999/xlink" x="0px" y="0px"
	 viewBox="0 0 535.9 539.5" style="enable-background:new 0 0 535.9 539.5;" xml:space="preserve">
<style type="text/css">
	.st0{fill:#091A2B;}
	.st1{fill:#1A4A7A;}
	.st2{fill:#2A77C4;}
	.st3{fill:#1A7A7A;}
	.st4{fill:#0F4545;}
	.st5{fill:#191919;}
	.st6{fill:#E5E5E5;}
	.st7{fill:#77BF30;}
</style>
<g>
	<circle class="st1" cx="176.2" cy="269.8" r="168.6"/>
	<circle class="st2" cx="358.4" cy="269.8" r="168.6"/>
	<circle class="st7" cx="267.3" cy="360.9" r="168.6"/>
	<circle class="st3" cx="267.3" cy="178.7" r="168.6"/>
</g>
<g>
	<path class="st0" d="M184.7,155.2h-54.8V210h54.8V155.2z M179.7,205h-44.8v-44.8h44.8V205z"/>
	<path class="st0" d="M240,129.4H124.3c-3.4,0-6.2,2.8-6.2,6.2v115.7c0,3.4,2.8,6.2,6.2,6.2H240c3.4,0,6.2-2.8,6.2-6.2V135.6
		C246.2,132.2,243.4,129.4,240,129.4z M241.2,251.3c0,0.7-0.5,1.2-1.2,1.2H124.3c-0.7,0-1.2-0.5-1.2-1.2V135.6
		c0-0.7,0.5-1.2,1.2-1.2H240c0.7,0,1.2,0.5,1.2,1.2V251.3z"/>
	<rect x="129.8" y="215" class="st0" width="55" height="5"/>
	<rect x="204.9" y="156" class="st0" width="28" height="5"/>
	<rect x="192" y="156" class="st0" width="8.9" height="5"/>
	<rect x="163" y="141.8" class="st0" width="69.9" height="5"/>
	<rect x="130.9" y="141.8" class="st0" width="22.1" height="5"/>
	<rect x="204.9" y="173.2" class="st0" width="28" height="5"/>
	<rect x="192" y="173.2" class="st0" width="8.9" height="5"/>
	<rect x="204.9" y="189.1" class="st0" width="28" height="5"/>
	<rect x="192" y="189.1" class="st0" width="8.9" height="5"/>
	<rect x="129.8" y="226.3" class="st0" width="47" height="5"/>
	<rect x="129.8" y="237.6" class="st0" width="55" height="5"/>
	<path class="st0" d="M176.7,191.9c0-4-3.4-7.4-9.2-9.3c2.9-4.7,2.4-11-1.6-15.1c-4.7-4.8-12.5-4.9-17.4-0.2
		c-4.2,4.1-4.8,10.5-1.8,15.3c-5.7,1.9-9.1,5.4-9.1,9.3v7.9h39.1V191.9z M171.7,194.8h-29.1v-2.9c0-1.6,2.7-3.9,7.7-5.1
		c1.8-0.4,2.9-2.2,2.5-4c-0.1-0.6-0.4-1.2-0.9-1.6c-2.8-2.9-2.8-7.5,0.1-10.3c2.9-2.8,7.5-2.8,10.3,0.1c2.8,2.8,2.8,7.4,0,10.2
		c-0.6,0.6-1,1.5-1,2.4c0,0.9,0.4,1.7,1,2.4c0.4,0.4,1,0.7,1.6,0.9c5.3,1.3,7.8,3.5,7.8,5.1V194.8z"/>
	<path class="st0" d="M199.3,226.3c-5.4,0-9.8,4.4-9.8,9.8c0,5.4,4.4,9.8,9.8,9.8s9.8-4.4,9.8-9.8
		C209.2,230.7,204.8,226.3,199.3,226.3z M199.3,240.9c-2.7,0-4.8-2.2-4.8-4.8c0-2.7,2.2-4.8,4.8-4.8s4.8,2.2,4.8,4.8
		C204.2,238.8,202,240.9,199.3,240.9z"/>
	<path class="st0" d="M225.6,226.3c-5.4,0-9.8,4.4-9.8,9.8c0,5.4,4.4,9.8,9.8,9.8c5.4,0,9.8-4.4,9.8-9.8
		C235.4,230.7,231,226.3,225.6,226.3z M225.6,240.9c-2.7,0-4.8-2.2-4.8-4.8c0-2.7,2.2-4.8,4.8-4.8c2.7,0,4.8,2.2,4.8,4.8
		C230.4,238.8,228.2,240.9,225.6,240.9z"/>
	<path class="st0" d="M389.6,279.5H273.9c-3.4,0-6.2,2.8-6.2,6.2v115.7c0,3.4,2.8,6.2,6.2,6.2h115.7c3.4,0,6.2-2.8,6.2-6.2V285.7
		C395.8,282.3,393,279.5,389.6,279.5z M390.8,285.7v115.7c0,0.6-0.5,1.2-1.2,1.2c0,0,0,0,0,0H273.9c-0.7,0-1.2-0.5-1.2-1.2V285.7
		c0-0.7,0.5-1.2,1.2-1.2h115.7C390.3,284.5,390.8,285.1,390.8,285.7C390.8,285.7,390.8,285.7,390.8,285.7z"/>
	<path class="st0" d="M379.8,307.9c4.1-0.2,7.3-3.6,7.2-7.7c0.2-4.1-3-7.6-7.2-7.7c-3.1,0.1-5.9,2.2-6.8,5.2h-33.6v-5.2h-15.4v5.2
		h-33.6c-0.9-3-3.6-5.1-6.8-5.2c-4.1,0.2-7.3,3.6-7.1,7.7c-0.1,4.1,3.1,7.5,7.2,7.7c3.2-0.1,5.9-2.2,6.8-5.2h17.9
		c-12.6,5.8-21.9,16-24.7,28.2h-6.1v15.4h15.4v-15.4h-4.2c3.8-14.1,17.8-25.1,35.3-27.7v4.7h6.5l-20.9,44c-1,2.1-1,4.5-0.2,6.6
		l7.7,18.4v17.8h29v-18l7.6-18.1c0.9-2.1,0.8-4.5-0.2-6.6l-20.9-44h6.6v-4.7c17.6,2.5,31.5,13.6,35.4,27.7h-4.2v15.4H386v-15.4h-6.1
		c-2.8-12.2-12.1-22.4-24.7-28.2c0,0,0,0,0,0h17.9C374,305.7,376.7,307.8,379.8,307.9z M283.7,302.9c-1.3-0.2-2.2-1.4-2.2-2.7
		c-0.1-1.3,0.8-2.5,2.2-2.7c0.3,0,0.6,0.1,0.8,0.2c0.8,0.6,1.3,1.5,1.3,2.4c0,0,0,0.1,0,0.1c0,0,0,0.1,0,0.1c0,0.9-0.5,1.8-1.3,2.4
		h0c0,0,0,0,0,0C284.3,302.8,284,302.9,283.7,302.9z M287.9,335.9v5.4h-5.4v-5.4h0.3H287.9L287.9,335.9z M341.3,389.7h-19v-9.8h19
		V389.7z M349.3,356.6l-7.7,18.3h-19.7l-7.7-18.3c-0.3-0.8-0.3-1.8,0.1-2.6l15-31.6v23.7H328v7.6h7.6v-7.6h-1.3v-23.7l15,31.6
		C349.6,354.8,349.6,355.7,349.3,356.6z M381,341.3h-5.4v-5.4h0.1h5h0.3V341.3z M378.6,302.3c-0.1-0.1-0.3-0.3-0.4-0.5
		c-0.1-0.2-0.2-0.3-0.3-0.5c0-0.1-0.1-0.2-0.1-0.3c0-0.1-0.1-0.2-0.1-0.3c0-0.1,0-0.2,0-0.3c0-0.1,0-0.2,0-0.3c0-0.1,0-0.2,0-0.3
		c0-0.1,0-0.2,0-0.3c0-0.1,0.1-0.2,0.1-0.3c0-0.1,0-0.2,0.1-0.3c0.1-0.2,0.2-0.4,0.3-0.5c0.1-0.2,0.2-0.3,0.4-0.5
		c0.1-0.1,0.3-0.3,0.5-0.4c0.2-0.1,0.5-0.2,0.8-0.2c1.3,0.2,2.3,1.4,2.2,2.7c0.1,1.3-0.8,2.5-2.2,2.7c-0.3,0-0.6-0.1-0.8-0.2
		C378.9,302.6,378.7,302.4,378.6,302.3z M329.1,302.7v-5v-0.3h5.4v0.3v5v0.2h-5.4V302.7z"/>
	<path class="st0" d="M240,279.5H124.3c-3.5,0-6.2,2.3-6.2,5.2v84.7c0,2.9,2.8,5.2,6.2,5.2h40.4l-0.8,16.2l-7,13.1
		c-0.4,0.8-0.4,1.7,0.1,2.5c0.5,0.8,1.3,1.2,2.1,1.2h49.4c0.9,0,1.7-0.5,2.1-1.2c0.5-0.8,0.5-1.7,0.1-2.5l-7-13.1l-0.8-16.2H240
		c3.5,0,6.2-2.3,6.2-5.2v-84.7C246.2,281.8,243.4,279.5,240,279.5z M198.8,391.6c0,0.4,0.1,0.7,0.3,1l5.3,9.9h-41.1l5.3-9.9
		c0.2-0.3,0.3-0.7,0.3-1.1l0.9-17h28.2L198.8,391.6z M241.2,369.3c-0.1,0.1-0.6,0.3-1.2,0.3h-39.7h-32.9h-43c-0.6,0-1-0.2-1.2-0.4
		v-84.4c0.1-0.1,0.5-0.3,1.2-0.3H240c0.6,0,1,0.2,1.2,0.4V369.3z"/>
	<rect x="141.5" y="288.5" class="st0" width="93.3" height="5"/>
	<rect x="128.7" y="288.5" class="st0" width="8.9" height="5"/>
	<rect x="143.1" y="349.7" class="st0" width="39.1" height="5"/>
	<rect x="128.7" y="349.7" class="st0" width="9.9" height="5"/>
	<rect x="143.1" y="359.3" class="st0" width="39.1" height="5"/>
	<rect x="128.7" y="359.3" class="st0" width="9.9" height="5"/>
	<polygon class="st0" points="190.8,356.3 207.4,363.7 207.4,358.7 196.9,354.4 207.4,350.2 207.4,345.2 190.8,352.5 	"/>
	<polygon class="st0" points="208.8,364.7 213.5,364.7 219.7,340.5 215,340.5 	"/>
	<polygon class="st0" points="220.3,345.2 220.3,350.1 231.1,354.4 220.3,358.7 220.3,363.7 236.9,356.5 236.9,352.4 	"/>
	<path class="st0" d="M128.3,345.2h60v-44.9h-60V345.2z M133.3,340.2v-11.5l15.4-13.9l13.6,15.7l9.1-6.4l12,10.8v5.2H133.3z
		 M183.3,305.3v23l-11.5-10.5l-8.7,6.1l-13.9-16.2L133.3,322v-16.7H183.3z"/>
	<rect x="206" y="300.8" class="st0" width="28" height="5"/>
	<rect x="193.1" y="300.8" class="st0" width="8.9" height="5"/>
	<rect x="206" y="311.6" class="st0" width="28" height="5"/>
	<rect x="193.1" y="311.6" class="st0" width="8.9" height="5"/>
	<rect x="206" y="322.4" class="st0" width="28" height="5"/>
	<rect x="193.1" y="322.4" class="st0" width="8.9" height="5"/>
	<rect x="276.9" y="196.6" class="st0" width="40.9" height="5"/>
	<rect x="276.9" y="206.9" class="st0" width="40.9" height="5"/>
	<rect x="276.9" y="217.2" class="st0" width="32.4" height="5"/>
	<rect x="346.3" y="202.3" class="st0" width="40.9" height="5"/>
	<rect x="346.3" y="212.6" class="st0" width="40.9" height="5"/>
	<path class="st0" d="M273.4,257.5h46.5c1.6,0,3.1-0.6,4.3-1.8c1.1-1.1,1.8-2.7,1.8-4.3v-5.2h-5v5.2c0,0.4-0.2,0.6-0.3,0.8
		c-0.1,0.1-0.4,0.3-0.8,0.3h-46.5c-0.6,0-1.1-0.5-1.1-1.1V191h48.6v40.3h5v-95.7c0-3.3-2.7-6.1-6.1-6.1h-46.5
		c-1.6,0-3.1,0.7-4.3,1.8c-1.1,1.2-1.8,2.7-1.7,4.3v115.9C267.3,254.7,270.1,257.5,273.4,257.5z M320.9,173.9l-10-10.4l-8.8,6.1
		l-13.9-16.2l-15.9,14.3v-16.7h48.6V173.9z M272.3,186v-11.5l15.4-13.9l13.6,15.7l9-6.3l10.7,11v4.9H272.3z M272.6,134.8
		c0.1-0.1,0.4-0.3,0.8-0.3h46.5c0.6,0,1.1,0.5,1.1,1.1v10.5h-48.6v-10.5C272.3,135.1,272.5,134.9,272.6,134.8z"/>
	<path class="st0" d="M310.8,229.4h-28.3c-4,0-7.2,3.2-7.2,7.2v4.2c0,4,3.2,7.2,7.2,7.2h28.3c3.8,0,7-3,7.2-6.8h10.9
		c3.1,0,5.6-2.5,5.5-5.6v-74.1c0-0.3,0.2-0.5,0.5-0.5h1.9v90.4c0,3.4,2.7,6.1,6.1,6.1h46.4c3.4,0,6.1-2.7,6.1-6.1V135.5
		c0-3.4-2.7-6.1-6.1-6.1h-46.4c-3.4,0-6.1,2.7-6.1,6.1V156h-1.9c-3.1,0-5.5,2.5-5.5,5.5v74.1c0,0.3-0.2,0.5-0.5,0.5h-10.9
		C317.7,232.4,314.6,229.4,310.8,229.4z M389.3,252.5h-46.4c-0.6,0-1.1-0.5-1.1-1.1V151.1h48.6v100.3
		C390.4,252,389.9,252.5,389.3,252.5z M342.9,134.4h46.4c0.6,0,1.1,0.5,1.1,1.1v10.5h-48.6v-10.5
		C341.8,134.9,342.3,134.4,342.9,134.4z M313,240.8c0,1.2-1,2.2-2.2,2.2h-28.3c-1.2,0-2.2-1-2.2-2.2v-4.2c0-1.2,1-2.2,2.2-2.2h28.3
		c1.2,0,2.2,1,2.2,2.2V240.8z"/>
	<path class="st0" d="M380.9,229.4h-28.3c-4,0-7.2,3.2-7.2,7.2v4.2c0,4,3.2,7.2,7.2,7.2h28.3c4,0,7.2-3.2,7.2-7.2v-4.2
		C388.1,232.6,384.9,229.4,380.9,229.4z M383.1,240.8c0,1.2-1,2.2-2.2,2.2h-28.3c-1.2,0-2.2-1-2.2-2.2v-4.2c0-1.2,1-2.2,2.2-2.2
		h28.3c1.2,0,2.2,1,2.2,2.2V240.8z"/>
	<rect x="311" y="137.8" class="st0" width="6.7" height="5"/>
	<rect x="276.9" y="137.8" class="st0" width="8.9" height="5"/>
	<rect x="379.8" y="137.8" class="st0" width="6.7" height="5"/>
	<rect x="345.6" y="137.8" class="st0" width="8.9" height="5"/>
	<path class="st0" d="M366.8,197.4c11.4,0,20.7-9.3,20.7-20.7s-9.3-20.7-20.7-20.7s-20.7,9.3-20.7,20.7S355.4,197.4,366.8,197.4z
		 M366.8,192.4c-2.5,0-4.9-0.6-7.1-1.7l8.4-11.6l14.3-1.5C382,185.8,375.1,192.4,366.8,192.4z M381.9,172.6l-14.2,1.5l-10-10.2
		c2.6-1.8,5.7-2.9,9.1-2.9C374,161,380.1,165.9,381.9,172.6z M354.2,167.4l9.4,9.5l-7.8,10.8c-2.8-2.8-4.6-6.7-4.6-11.1
		C351.1,173.2,352.2,170,354.2,167.4z"/>
</g>
</svg>
