<?xml version="1.0" encoding="utf-8"?>
<!-- Generator: Adobe Illustrator 25.2.1, SVG Export Plug-In . SVG Version: 6.00 Build 0)  -->
<svg version="1.1" id="Layer_1" xmlns="http://www.w3.org/2000/svg" xmlns:xlink="http://www.w3.org/1999/xlink" x="0px" y="0px"
	 viewBox="0 0 535.9 539.5" style="enable-background:new 0 0 535.9 539.5;" xml:space="preserve">
<style type="text/css">
	.st0{fill:#1A4A7A;}
	.st1{fill:#2A77C4;}
	.st2{fill:#77BF30;}
	.st3{fill:#1A7A7A;}
	.st4{fill:#091A2B;}
</style>
<g>
	<circle class="st0" cx="176.2" cy="269.8" r="168.6"/>
	<circle class="st1" cx="358.4" cy="269.8" r="168.6"/>
	<circle class="st2" cx="267.3" cy="360.9" r="168.6"/>
	<circle class="st3" cx="267.3" cy="178.7" r="168.6"/>
</g>
<g>
	<path class="st4" d="M194.7,155.2h-54.8V210h54.8V155.2z M189.7,205h-44.8v-44.8h44.8V205z"/>
	<path class="st4" d="M250,129.4H134.3c-3.4,0-6.2,2.8-6.2,6.2v115.7c0,3.4,2.8,6.2,6.2,6.2H250c3.4,0,6.2-2.8,6.2-6.2V135.6
		C256.2,132.2,253.4,129.4,250,129.4z M251.2,251.3c0,0.7-0.5,1.2-1.2,1.2H134.3c-0.7,0-1.2-0.5-1.2-1.2V135.6
		c0-0.7,0.5-1.2,1.2-1.2H250c0.7,0,1.2,0.5,1.2,1.2V251.3z"/>
	<rect x="139.8" y="215" class="st4" width="55" height="5"/>
	<rect x="214.9" y="156" class="st4" width="28" height="5"/>
	<rect x="202" y="156" class="st4" width="8.9" height="5"/>
	<rect x="173" y="141.8" class="st4" width="69.9" height="5"/>
	<rect x="140.9" y="141.8" class="st4" width="22.1" height="5"/>
	<rect x="214.9" y="173.2" class="st4" width="28" height="5"/>
	<rect x="202" y="173.2" class="st4" width="8.9" height="5"/>
	<rect x="214.9" y="189.1" class="st4" width="28" height="5"/>
	<rect x="202" y="189.1" class="st4" width="8.9" height="5"/>
	<rect x="139.8" y="226.3" class="st4" width="47" height="5"/>
	<rect x="139.8" y="237.6" class="st4" width="55" height="5"/>
	<path class="st4" d="M186.7,191.9c0-4-3.4-7.4-9.2-9.3c2.9-4.7,2.4-11-1.6-15.1c-4.7-4.8-12.5-4.9-17.4-0.2
		c-4.2,4.1-4.8,10.5-1.8,15.3c-5.7,1.9-9.1,5.4-9.1,9.3v7.9h39.1L186.7,191.9L186.7,191.9z M181.7,194.8h-29.1v-2.9
		c0-1.6,2.7-3.9,7.7-5.1c1.8-0.4,2.9-2.2,2.5-4c-0.1-0.6-0.4-1.2-0.9-1.6c-2.8-2.9-2.8-7.5,0.1-10.3c2.9-2.8,7.5-2.8,10.3,0.1
		c2.8,2.8,2.8,7.4,0,10.2c-0.6,0.6-1,1.5-1,2.4s0.4,1.7,1,2.4c0.4,0.4,1,0.7,1.6,0.9c5.3,1.3,7.8,3.5,7.8,5.1L181.7,194.8
		L181.7,194.8z"/>
	<path class="st4" d="M209.3,226.3c-5.4,0-9.8,4.4-9.8,9.8c0,5.4,4.4,9.8,9.8,9.8s9.8-4.4,9.8-9.8
		C219.2,230.7,214.8,226.3,209.3,226.3z M209.3,240.9c-2.7,0-4.8-2.2-4.8-4.8c0-2.7,2.2-4.8,4.8-4.8s4.8,2.2,4.8,4.8
		C214.2,238.8,212,240.9,209.3,240.9z"/>
	<path class="st4" d="M235.6,226.3c-5.4,0-9.8,4.4-9.8,9.8c0,5.4,4.4,9.8,9.8,9.8c5.4,0,9.8-4.4,9.8-9.8
		C245.4,230.7,241,226.3,235.6,226.3z M235.6,240.9c-2.7,0-4.8-2.2-4.8-4.8c0-2.7,2.2-4.8,4.8-4.8c2.7,0,4.8,2.2,4.8,4.8
		C240.4,238.8,238.2,240.9,235.6,240.9z"/>
	<path class="st4" d="M399.6,279.5H283.9c-3.4,0-6.2,2.8-6.2,6.2v115.7c0,3.4,2.8,6.2,6.2,6.2h115.7c3.4,0,6.2-2.8,6.2-6.2V285.7
		C405.8,282.3,403,279.5,399.6,279.5z M400.8,285.7v115.7c0,0.6-0.5,1.2-1.2,1.2l0,0H283.9c-0.7,0-1.2-0.5-1.2-1.2V285.7
		c0-0.7,0.5-1.2,1.2-1.2h115.7C400.3,284.5,400.8,285.1,400.8,285.7L400.8,285.7z"/>
	<path class="st4" d="M389.8,307.9c4.1-0.2,7.3-3.6,7.2-7.7c0.2-4.1-3-7.6-7.2-7.7c-3.1,0.1-5.9,2.2-6.8,5.2h-33.6v-5.2H334v5.2
		h-33.6c-0.9-3-3.6-5.1-6.8-5.2c-4.1,0.2-7.3,3.6-7.1,7.7c-0.1,4.1,3.1,7.5,7.2,7.7c3.2-0.1,5.9-2.2,6.8-5.2h17.9
		c-12.6,5.8-21.9,16-24.7,28.2h-6.1v15.4H303v-15.4h-4.2c3.8-14.1,17.8-25.1,35.3-27.7v4.7h6.5l-20.9,44c-1,2.1-1,4.5-0.2,6.6
		l7.7,18.4v17.8h29v-18l7.6-18.1c0.9-2.1,0.8-4.5-0.2-6.6l-20.9-44h6.6v-4.7c17.6,2.5,31.5,13.6,35.4,27.7h-4.2v15.4H396V331h-6.1
		c-2.8-12.2-12.1-22.4-24.7-28.2l0,0h17.9C384,305.7,386.7,307.8,389.8,307.9z M293.7,302.9c-1.3-0.2-2.2-1.4-2.2-2.7
		c-0.1-1.3,0.8-2.5,2.2-2.7c0.3,0,0.6,0.1,0.8,0.2c0.8,0.6,1.3,1.5,1.3,2.4v0.1v0.1c0,0.9-0.5,1.8-1.3,2.4l0,0l0,0
		C294.3,302.8,294,302.9,293.7,302.9z M297.9,335.9v5.4h-5.4v-5.4h0.3H297.9L297.9,335.9z M351.3,389.7h-19v-9.8h19V389.7z
		 M359.3,356.6l-7.7,18.3h-19.7l-7.7-18.3c-0.3-0.8-0.3-1.8,0.1-2.6l15-31.6v23.7H338v7.6h7.6v-7.6h-1.3v-23.7l15,31.6
		C359.6,354.8,359.6,355.7,359.3,356.6z M391,341.3h-5.4v-5.4h0.1h5h0.3V341.3z M388.6,302.3c-0.1-0.1-0.3-0.3-0.4-0.5
		s-0.2-0.3-0.3-0.5c0-0.1-0.1-0.2-0.1-0.3c0-0.1-0.1-0.2-0.1-0.3c0-0.1,0-0.2,0-0.3c0-0.1,0-0.2,0-0.3c0-0.1,0-0.2,0-0.3
		c0-0.1,0-0.2,0-0.3c0-0.1,0.1-0.2,0.1-0.3c0-0.1,0-0.2,0.1-0.3c0.1-0.2,0.2-0.4,0.3-0.5c0.1-0.2,0.2-0.3,0.4-0.5
		c0.1-0.1,0.3-0.3,0.5-0.4s0.5-0.2,0.8-0.2c1.3,0.2,2.3,1.4,2.2,2.7c0.1,1.3-0.8,2.5-2.2,2.7c-0.3,0-0.6-0.1-0.8-0.2
		C388.9,302.6,388.7,302.4,388.6,302.3z M339.1,302.7v-5v-0.3h5.4v0.3v5v0.2h-5.4V302.7z"/>
	<path class="st4" d="M250,279.5H134.3c-3.5,0-6.2,2.3-6.2,5.2v84.7c0,2.9,2.8,5.2,6.2,5.2h40.4l-0.8,16.2l-7,13.1
		c-0.4,0.8-0.4,1.7,0.1,2.5s1.3,1.2,2.1,1.2h49.4c0.9,0,1.7-0.5,2.1-1.2c0.5-0.8,0.5-1.7,0.1-2.5l-7-13.1l-0.8-16.2H250
		c3.5,0,6.2-2.3,6.2-5.2v-84.7C256.2,281.8,253.4,279.5,250,279.5z M208.8,391.6c0,0.4,0.1,0.7,0.3,1l5.3,9.9h-41.1l5.3-9.9
		c0.2-0.3,0.3-0.7,0.3-1.1l0.9-17H208L208.8,391.6z M251.2,369.3c-0.1,0.1-0.6,0.3-1.2,0.3h-39.7h-32.9h-43c-0.6,0-1-0.2-1.2-0.4
		v-84.4c0.1-0.1,0.5-0.3,1.2-0.3H250c0.6,0,1,0.2,1.2,0.4V369.3z"/>
	<rect x="151.5" y="288.5" class="st4" width="93.3" height="5"/>
	<rect x="138.7" y="288.5" class="st4" width="8.9" height="5"/>
	<rect x="153.1" y="349.7" class="st4" width="39.1" height="5"/>
	<rect x="138.7" y="349.7" class="st4" width="9.9" height="5"/>
	<rect x="153.1" y="359.3" class="st4" width="39.1" height="5"/>
	<rect x="138.7" y="359.3" class="st4" width="9.9" height="5"/>
	<polygon class="st4" points="200.8,356.3 217.4,363.7 217.4,358.7 206.9,354.4 217.4,350.2 217.4,345.2 200.8,352.5 	"/>
	<polygon class="st4" points="218.8,364.7 223.5,364.7 229.7,340.5 225,340.5 	"/>
	<polygon class="st4" points="230.3,345.2 230.3,350.1 241.1,354.4 230.3,358.7 230.3,363.7 246.9,356.5 246.9,352.4 	"/>
	<path class="st4" d="M138.3,345.2h60v-44.9h-60V345.2z M143.3,340.2v-11.5l15.4-13.9l13.6,15.7l9.1-6.4l12,10.8v5.2L143.3,340.2
		L143.3,340.2z M193.3,305.3v23l-11.5-10.5l-8.7,6.1l-13.9-16.2L143.3,322v-16.7H193.3z"/>
	<rect x="216" y="300.8" class="st4" width="28" height="5"/>
	<rect x="203.1" y="300.8" class="st4" width="8.9" height="5"/>
	<rect x="216" y="311.6" class="st4" width="28" height="5"/>
	<rect x="203.1" y="311.6" class="st4" width="8.9" height="5"/>
	<rect x="216" y="322.4" class="st4" width="28" height="5"/>
	<rect x="203.1" y="322.4" class="st4" width="8.9" height="5"/>
	<rect x="286.9" y="196.6" class="st4" width="40.9" height="5"/>
	<rect x="286.9" y="206.9" class="st4" width="40.9" height="5"/>
	<rect x="286.9" y="217.2" class="st4" width="32.4" height="5"/>
	<rect x="356.3" y="202.3" class="st4" width="40.9" height="5"/>
	<rect x="356.3" y="212.6" class="st4" width="40.9" height="5"/>
	<path class="st4" d="M283.4,257.5h46.5c1.6,0,3.1-0.6,4.3-1.8c1.1-1.1,1.8-2.7,1.8-4.3v-5.2h-5v5.2c0,0.4-0.2,0.6-0.3,0.8
		c-0.1,0.1-0.4,0.3-0.8,0.3h-46.5c-0.6,0-1.1-0.5-1.1-1.1V191h48.6v40.3h5v-95.7c0-3.3-2.7-6.1-6.1-6.1h-46.5
		c-1.6,0-3.1,0.7-4.3,1.8c-1.1,1.2-1.8,2.7-1.7,4.3v115.9C277.3,254.7,280.1,257.5,283.4,257.5z M330.9,173.9l-10-10.4l-8.8,6.1
		l-13.9-16.2l-15.9,14.3V151h48.6L330.9,173.9L330.9,173.9z M282.3,186v-11.5l15.4-13.9l13.6,15.7l9-6.3l10.7,11v4.9h-48.7V186z
		 M282.6,134.8c0.1-0.1,0.4-0.3,0.8-0.3h46.5c0.6,0,1.1,0.5,1.1,1.1v10.5h-48.6v-10.5C282.3,135.1,282.5,134.9,282.6,134.8z"/>
	<path class="st4" d="M320.8,229.4h-28.3c-4,0-7.2,3.2-7.2,7.2v4.2c0,4,3.2,7.2,7.2,7.2h28.3c3.8,0,7-3,7.2-6.8h10.9
		c3.1,0,5.6-2.5,5.5-5.6v-74.1c0-0.3,0.2-0.5,0.5-0.5h1.9v90.4c0,3.4,2.7,6.1,6.1,6.1h46.4c3.4,0,6.1-2.7,6.1-6.1V135.5
		c0-3.4-2.7-6.1-6.1-6.1h-46.4c-3.4,0-6.1,2.7-6.1,6.1V156h-1.9c-3.1,0-5.5,2.5-5.5,5.5v74.1c0,0.3-0.2,0.5-0.5,0.5H328
		C327.7,232.4,324.6,229.4,320.8,229.4z M399.3,252.5h-46.4c-0.6,0-1.1-0.5-1.1-1.1V151.1h48.6v100.3
		C400.4,252,399.9,252.5,399.3,252.5z M352.9,134.4h46.4c0.6,0,1.1,0.5,1.1,1.1V146h-48.6v-10.5
		C351.8,134.9,352.3,134.4,352.9,134.4z M323,240.8c0,1.2-1,2.2-2.2,2.2h-28.3c-1.2,0-2.2-1-2.2-2.2v-4.2c0-1.2,1-2.2,2.2-2.2h28.3
		c1.2,0,2.2,1,2.2,2.2V240.8z"/>
	<path class="st4" d="M390.9,229.4h-28.3c-4,0-7.2,3.2-7.2,7.2v4.2c0,4,3.2,7.2,7.2,7.2h28.3c4,0,7.2-3.2,7.2-7.2v-4.2
		C398.1,232.6,394.9,229.4,390.9,229.4z M393.1,240.8c0,1.2-1,2.2-2.2,2.2h-28.3c-1.2,0-2.2-1-2.2-2.2v-4.2c0-1.2,1-2.2,2.2-2.2
		h28.3c1.2,0,2.2,1,2.2,2.2V240.8z"/>
	<rect x="321" y="137.8" class="st4" width="6.7" height="5"/>
	<rect x="286.9" y="137.8" class="st4" width="8.9" height="5"/>
	<rect x="389.8" y="137.8" class="st4" width="6.7" height="5"/>
	<rect x="355.6" y="137.8" class="st4" width="8.9" height="5"/>
	<path class="st4" d="M376.8,197.4c11.4,0,20.7-9.3,20.7-20.7s-9.3-20.7-20.7-20.7s-20.7,9.3-20.7,20.7S365.4,197.4,376.8,197.4z
		 M376.8,192.4c-2.5,0-4.9-0.6-7.1-1.7l8.4-11.6l14.3-1.5C392,185.8,385.1,192.4,376.8,192.4z M391.9,172.6l-14.2,1.5l-10-10.2
		c2.6-1.8,5.7-2.9,9.1-2.9C384,161,390.1,165.9,391.9,172.6z M364.2,167.4l9.4,9.5l-7.8,10.8c-2.8-2.8-4.6-6.7-4.6-11.1
		C361.1,173.2,362.2,170,364.2,167.4z"/>
</g>
</svg>
