<?xml version="1.0" encoding="utf-8"?>
<!-- Generator: Adobe Illustrator 25.2.1, SVG Export Plug-In . SVG Version: 6.00 Build 0)  -->
<svg version="1.1" id="Layer_1" xmlns="http://www.w3.org/2000/svg" xmlns:xlink="http://www.w3.org/1999/xlink" x="0px" y="0px"
	 viewBox="0 0 289.3 291.3" style="enable-background:new 0 0 289.3 291.3;" xml:space="preserve">
<style type="text/css">
	.st0{fill:#091A2B;}
	.st1{fill:#1A4A7A;}
	.st2{fill:#2A77C4;}
	.st3{fill:#1A7A7A;}
	.st4{fill:#0F4545;}
	.st5{fill:#191919;}
	.st6{fill:#E5E5E5;}
	.st7{fill:#77BF30;}
</style>
<g>
	<path class="st0" d="M72.8,33.3H18.1v54.8h54.8V33.3z M67.8,83.1H23.1V38.3h44.8V83.1z"/>
	<path class="st0" d="M128.2,7.5H12.5c-3.4,0-6.2,2.8-6.2,6.2v115.7c0,3.4,2.8,6.2,6.2,6.2h115.7c3.4,0,6.2-2.8,6.2-6.2V13.7
		C134.4,10.3,131.6,7.5,128.2,7.5z M129.4,129.4c0,0.7-0.5,1.2-1.2,1.2H12.5c-0.7,0-1.2-0.5-1.2-1.2V13.7c0-0.7,0.5-1.2,1.2-1.2
		h115.7c0.7,0,1.2,0.5,1.2,1.2V129.4z"/>
	<rect x="17.9" y="93.1" class="st0" width="55" height="5"/>
	<rect x="93.1" y="34.1" class="st0" width="28" height="5"/>
	<rect x="80.2" y="34.1" class="st0" width="8.9" height="5"/>
	<rect x="51.2" y="19.9" class="st0" width="69.9" height="5"/>
	<rect x="19.1" y="19.9" class="st0" width="22.1" height="5"/>
	<rect x="93.1" y="51.3" class="st0" width="28" height="5"/>
	<rect x="80.2" y="51.3" class="st0" width="8.9" height="5"/>
	<rect x="93.1" y="67.2" class="st0" width="28" height="5"/>
	<rect x="80.2" y="67.2" class="st0" width="8.9" height="5"/>
	<rect x="17.9" y="104.4" class="st0" width="47" height="5"/>
	<rect x="17.9" y="115.7" class="st0" width="55" height="5"/>
	<path class="st0" d="M64.9,70c0-4-3.4-7.4-9.2-9.3c2.9-4.7,2.4-11-1.6-15.1c-2.3-2.3-5.4-3.7-8.7-3.7c-3.3,0-6.4,1.2-8.7,3.5
		c-4.2,4.1-4.8,10.5-1.8,15.3c-5.7,1.9-9.1,5.4-9.1,9.3v7.9h39.1V70z M59.9,72.9H30.8V70c0-1.6,2.7-3.9,7.7-5.1
		c1.8-0.4,2.9-2.2,2.5-4c-0.1-0.6-0.4-1.2-0.9-1.6c-2.8-2.9-2.8-7.5,0.1-10.3c1.4-1.4,3.2-2.1,5.2-2.1c1.9,0,3.8,0.8,5.1,2.2
		c2.8,2.8,2.8,7.4,0,10.2c-1.3,1.3-1.3,3.4,0,4.7c0.4,0.4,1,0.7,1.6,0.9c5.3,1.3,7.8,3.5,7.8,5.1V72.9z"/>
	<path class="st0" d="M87.5,104.4c-5.4,0-9.8,4.4-9.8,9.8c0,5.4,4.4,9.8,9.8,9.8c5.4,0,9.8-4.4,9.8-9.8
		C97.3,108.8,92.9,104.4,87.5,104.4z M87.5,119.1c-2.7,0-4.8-2.2-4.8-4.8s2.2-4.8,4.8-4.8s4.8,2.2,4.8,4.8S90.2,119.1,87.5,119.1z"
		/>
	<path class="st0" d="M113.7,104.4c-5.4,0-9.8,4.4-9.8,9.8c0,5.4,4.4,9.8,9.8,9.8c5.4,0,9.8-4.4,9.8-9.8
		C123.6,108.8,119.2,104.4,113.7,104.4z M113.7,119.1c-2.7,0-4.8-2.2-4.8-4.8s2.2-4.8,4.8-4.8s4.8,2.2,4.8,4.8
		S116.4,119.1,113.7,119.1z"/>
	<path class="st0" d="M277.8,157.6H162.1c-3.4,0-6.2,2.8-6.2,6.2v115.7c0,3.4,2.8,6.2,6.2,6.2h115.7c3.4,0,6.2-2.8,6.2-6.2V163.8
		C284,160.4,281.2,157.6,277.8,157.6z M279,163.8v115.7c0,0.6-0.5,1.2-1.2,1.2c0,0,0,0,0,0H162.1c-0.7,0-1.2-0.5-1.2-1.2V163.8
		c0-0.7,0.5-1.2,1.2-1.2h115.7C278.4,162.6,279,163.2,279,163.8C279,163.8,279,163.8,279,163.8z"/>
	<path class="st0" d="M268,186c4.1-0.2,7.3-3.6,7.2-7.7c0.2-4.1-3-7.6-7.2-7.7c-3.1,0.1-5.9,2.2-6.8,5.2h-33.6v-5.2h-15.4v5.2h-33.6
		c-0.9-3-3.6-5.1-6.8-5.2c-4.1,0.2-7.3,3.6-7.1,7.7c-0.1,4.1,3.1,7.5,7.2,7.7c3.2-0.1,5.9-2.2,6.8-5.2h17.9
		c-12.6,5.8-21.9,16-24.7,28.2h-6.1v15.4h15.4V209h-4.2c3.8-14.1,17.8-25.1,35.3-27.7v4.7h6.5l-20.9,44c-1,2.1-1,4.5-0.2,6.6
		l7.7,18.4v17.8h29v-18l7.6-18.1c0.9-2.1,0.8-4.5-0.1-6.6l-20.9-44h6.6v-4.7c17.6,2.5,31.6,13.6,35.4,27.7h-4.2v15.4h15.4V209h-6.1
		c-2.8-12.2-12.1-22.4-24.7-28.2c0,0,0,0,0,0h17.9C262.1,183.8,264.9,185.9,268,186z M171.9,181c-1.3-0.2-2.2-1.4-2.2-2.7
		c-0.1-1.3,0.8-2.5,2.2-2.7c0.3,0,0.6,0.1,0.8,0.2c0.8,0.6,1.3,1.5,1.3,2.4c0,0,0,0.1,0,0.1c0,0,0,0.1,0,0.1c0,0.9-0.5,1.8-1.3,2.4
		h0c0,0,0,0,0,0C172.4,180.9,172.2,181,171.9,181z M176.1,214v5.4h-5.4V214h0.3H176.1L176.1,214z M229.5,267.8h-19V258h19V267.8z
		 M237.5,234.7l-7.7,18.3h-19.7l-7.7-18.3c-0.3-0.8-0.3-1.8,0.1-2.6l15-31.6v23.7h-1.3v7.6h7.6v-7.6h-1.3v-23.7l15,31.6
		C237.8,232.9,237.8,233.8,237.5,234.7z M269.2,219.4h-5.4V214h0.1h5h0.3V219.4z M266.7,180.4c-0.1-0.1-0.3-0.3-0.4-0.5
		c-0.1-0.2-0.2-0.3-0.3-0.5c0-0.1-0.1-0.2-0.1-0.3c0-0.1-0.1-0.2-0.1-0.3c0-0.1,0-0.2,0-0.3c0-0.1,0-0.2,0-0.3c0-0.1,0-0.2,0-0.3
		c0-0.1,0-0.2,0-0.3c0-0.1,0.1-0.2,0.1-0.3c0-0.1,0-0.2,0.1-0.3c0.1-0.2,0.2-0.4,0.3-0.5c0.1-0.2,0.2-0.3,0.4-0.5
		c0.1-0.1,0.3-0.3,0.5-0.4c0.2-0.1,0.5-0.2,0.8-0.2c1.3,0.2,2.3,1.4,2.2,2.7c0.1,1.3-0.8,2.5-2.2,2.7c-0.3,0-0.6-0.1-0.8-0.2
		C267,180.7,266.9,180.5,266.7,180.4z M217.2,180.8v-5v-0.3h5.4v0.3v5v0.2h-5.4V180.8z"/>
	<path class="st0" d="M128.2,157.6H12.5c-3.5,0-6.2,2.3-6.2,5.2v84.7c0,2.9,2.8,5.2,6.2,5.2h40.4l-0.8,16.2l-7,13.1
		c-0.4,0.8-0.4,1.7,0.1,2.5c0.5,0.8,1.3,1.2,2.1,1.2h49.4c0.9,0,1.7-0.5,2.1-1.2s0.5-1.7,0.1-2.5l-7-13.1l-0.8-16.2h37.1
		c3.5,0,6.2-2.3,6.2-5.2v-84.7C134.4,159.9,131.6,157.6,128.2,157.6z M87,269.7c0,0.4,0.1,0.7,0.3,1l5.3,9.9H51.5l5.3-9.9
		c0.2-0.3,0.3-0.7,0.3-1.1l0.9-17h28.2L87,269.7z M129.4,247.4c-0.1,0.1-0.6,0.3-1.2,0.3H88.4H55.5h-43c-0.6,0-1-0.2-1.2-0.4v-84.4
		c0.1-0.1,0.5-0.3,1.2-0.3h115.7c0.6,0,1,0.2,1.2,0.4V247.4z"/>
	<rect x="29.7" y="166.6" class="st0" width="93.3" height="5"/>
	<rect x="16.8" y="166.6" class="st0" width="8.9" height="5"/>
	<rect x="31.2" y="227.8" class="st0" width="39.1" height="5"/>
	<rect x="16.8" y="227.8" class="st0" width="9.9" height="5"/>
	<rect x="31.2" y="237.4" class="st0" width="39.1" height="5"/>
	<rect x="16.8" y="237.4" class="st0" width="9.9" height="5"/>
	<polygon class="st0" points="79,234.4 95.6,241.8 95.6,236.8 85.1,232.5 95.6,228.3 95.6,223.3 79,230.6 	"/>
	<polygon class="st0" points="96.9,242.8 101.6,242.8 107.9,218.6 103.2,218.6 	"/>
	<polygon class="st0" points="108.4,223.3 108.4,228.2 119.2,232.5 108.4,236.8 108.4,241.8 125.1,234.6 125.1,230.5 	"/>
	<path class="st0" d="M16.5,223.3h60v-44.9h-60V223.3z M21.5,218.3v-11.5l15.4-13.9l13.6,15.7l9.1-6.4l12,10.8v5.2H21.5z
		 M71.5,183.4v23l-11.5-10.5l-8.7,6.1l-13.9-16.2l-15.9,14.3v-16.7H71.5z"/>
	<rect x="94.1" y="178.9" class="st0" width="28" height="5"/>
	<rect x="81.3" y="178.9" class="st0" width="8.9" height="5"/>
	<rect x="94.1" y="189.7" class="st0" width="28" height="5"/>
	<rect x="81.3" y="189.7" class="st0" width="8.9" height="5"/>
	<rect x="94.1" y="200.5" class="st0" width="28" height="5"/>
	<rect x="81.3" y="200.5" class="st0" width="8.9" height="5"/>
	<rect x="165.1" y="74.7" class="st0" width="40.9" height="5"/>
	<rect x="165.1" y="85" class="st0" width="40.9" height="5"/>
	<rect x="165.1" y="95.3" class="st0" width="32.3" height="5"/>
	<rect x="234.5" y="80.4" class="st0" width="40.9" height="5"/>
	<rect x="234.5" y="90.7" class="st0" width="40.9" height="5"/>
	<path class="st0" d="M161.6,135.6h46.5c1.6,0,3.1-0.6,4.3-1.8c1.1-1.1,1.8-2.7,1.8-4.3v-5.2h-5v5.2c0,0.6-0.5,1.1-1.1,1.1h-46.5
		c-0.6,0-1.1-0.5-1.1-1.1V69.1h48.6v40.3h5l0-95.7c0-3.3-2.7-6.1-6.1-6.1c0,0,0,0,0,0h-46.5c-3.4,0-6.1,2.8-6,6.1v115.9
		C155.5,132.8,158.2,135.6,161.6,135.6z M209.1,52l-10-10.4l-8.8,6.1l-13.9-16.2l-15.9,14.3V29.2h48.6V52z M160.5,64.1V52.6
		l15.4-13.9l13.6,15.7l9-6.3l10.7,11v4.9H160.5z M161.6,12.5H208c0.6,0,1.1,0.5,1.1,1.1v10.5h-48.6V13.6
		C160.5,13,161,12.5,161.6,12.5z"/>
	<path class="st0" d="M199,107.5h-28.3c-4,0-7.2,3.2-7.2,7.2v4.2c0,4,3.2,7.2,7.2,7.2H199c3.8,0,7-3,7.2-6.8H217c0,0,0,0,0,0
		c3.1,0,5.6-2.5,5.5-5.6V39.6c0-0.3,0.2-0.5,0.5-0.5h1.9v90.4c0,3.4,2.7,6.1,6.1,6.1h46.4c3.4,0,6.1-2.7,6.1-6.1V13.6
		c0-3.4-2.7-6.1-6.1-6.1H231c-3.4,0-6.1,2.7-6.1,6.1v20.5h-1.9c-3.1,0-5.5,2.5-5.5,5.5v74.1v0c0,0.3-0.2,0.5-0.6,0.5h-10.9
		C205.9,110.5,202.8,107.5,199,107.5z M277.5,130.6H231c-0.6,0-1.1-0.5-1.1-1.1V29.2h48.6v100.3
		C278.6,130.1,278.1,130.6,277.5,130.6z M231,12.5h46.4c0.6,0,1.1,0.5,1.1,1.1v10.6H230V13.6C230,13,230.4,12.5,231,12.5z
		 M201.1,118.9c0,1.2-1,2.2-2.2,2.2h-28.3c-1.2,0-2.2-1-2.2-2.2v-4.2c0-1.2,1-2.2,2.2-2.2H199c1.2,0,2.2,1,2.2,2.2V118.9z"/>
	<path class="st0" d="M269.1,107.5h-28.3c-4,0-7.2,3.2-7.2,7.2v4.2c0,4,3.2,7.2,7.2,7.2h28.3c4,0,7.2-3.2,7.2-7.2v-4.2
		C276.3,110.7,273.1,107.5,269.1,107.5z M271.3,118.9c0,1.2-1,2.2-2.2,2.2h-28.3c-1.2,0-2.2-1-2.2-2.2v-4.2c0-1.2,1-2.2,2.2-2.2
		h28.3c1.2,0,2.2,1,2.2,2.2V118.9z"/>
	<rect x="199.2" y="15.9" class="st0" width="6.7" height="5"/>
	<rect x="165.1" y="15.9" class="st0" width="8.9" height="5"/>
	<rect x="267.9" y="15.9" class="st0" width="6.7" height="5"/>
	<rect x="233.8" y="15.9" class="st0" width="8.9" height="5"/>
	<path class="st0" d="M255,75.5c11.4,0,20.7-9.3,20.7-20.7s-9.3-20.7-20.7-20.7c-11.4,0-20.7,9.3-20.7,20.7S243.5,75.5,255,75.5z
		 M255,70.5c-2.5,0-4.9-0.6-7.1-1.7l8.4-11.6l14.3-1.5C270.1,63.9,263.3,70.5,255,70.5z M270.1,50.7l-14.2,1.5l-10-10.2
		c2.6-1.8,5.7-2.9,9.1-2.9C262.2,39.1,268.3,44,270.1,50.7z M242.3,45.5l9.4,9.5l-7.8,10.8c-2.8-2.8-4.6-6.7-4.6-11.1
		C239.3,51.3,240.4,48.1,242.3,45.5z"/>
</g>
</svg>
