<svg id="Layer_1" data-name="Layer 1" xmlns="http://www.w3.org/2000/svg" viewBox="0 0 73.07 57.86"><defs><style>.cls-1{fill:#231f20;}</style></defs><path class="cls-1" d="M16.59,49.48A13.26,13.26,0,1,1,29.85,36.23,13.27,13.27,0,0,1,16.59,49.48Zm0-24.51A11.26,11.26,0,1,0,27.85,36.23,11.27,11.27,0,0,0,16.59,25Z"/><path class="cls-1" d="M57.93,49.48A13.26,13.26,0,1,1,71.19,36.23,13.27,13.27,0,0,1,57.93,49.48Zm0-24.51A11.26,11.26,0,1,0,69.19,36.23,11.27,11.27,0,0,0,57.93,25Z"/><path class="cls-1" d="M33.43,37.23H16.59a1,1,0,0,1-.85-.47,1,1,0,0,1-.05-1l9.64-20.26a1,1,0,0,1,.91-.57H50a1,1,0,0,1,.78,1.64L34.21,36.86A1,1,0,0,1,33.43,37.23Zm-15.26-2H33L47.88,17h-21Z"/><path class="cls-1" d="M33.43,37.23a1,1,0,0,1-.94-.66l-9-24.74A1,1,0,0,1,24,10.55a1,1,0,0,1,1.29.59l9,24.74a1,1,0,0,1-.59,1.28A.87.87,0,0,1,33.43,37.23Z"/><path class="cls-1" d="M57.85,37a1,1,0,0,1-.93-.64L47.06,11.24a1,1,0,0,1,.11-.93A1,1,0,0,1,48,9.88h7.24A3.31,3.31,0,0,1,58,12.71c.12.68.22,3-3.25,4.21A1,1,0,0,1,54.13,15c.76-.26,2-.86,1.94-1.88a1.59,1.59,0,0,0-.86-1.27H49.46l9.32,23.78a1,1,0,0,1-.57,1.3A.92.92,0,0,1,57.85,37Z"/><path class="cls-1" d="M30.08,11.45H20.21a1,1,0,0,1,0-2h9.87a1,1,0,0,1,0,2Z"/></svg>