<svg id="Layer_1" data-name="Layer 1" xmlns="http://www.w3.org/2000/svg" viewBox="0 0 73.07 57.86"><defs><style>.cls-1{fill:#231f20;}.cls-2{fill:none;stroke:#231f20;stroke-linecap:round;stroke-linejoin:round;stroke-width:2px;}</style></defs><path class="cls-1" d="M40.69,53H24.45A10.72,10.72,0,0,1,13.74,42.33V21.38a3.1,3.1,0,0,1,3.09-3.09H48.31a3.09,3.09,0,0,1,3.09,3.09v21A10.72,10.72,0,0,1,40.69,53ZM16.83,20.29a1.09,1.09,0,0,0-1.09,1.09v21A8.72,8.72,0,0,0,24.45,51H40.69a8.72,8.72,0,0,0,8.71-8.71V21.38a1.09,1.09,0,0,0-1.09-1.09Z"/><path class="cls-1" d="M54.6,43.67H49.4V23.84h9.84a6.21,6.21,0,0,1,6.2,6.2v2.78A10.86,10.86,0,0,1,54.6,43.67Zm-3.2-2h3.2a8.85,8.85,0,0,0,8.84-8.85V30a4.2,4.2,0,0,0-4.2-4.2H51.4Z"/><path class="cls-1" d="M18.43,17.45a1,1,0,0,1-.37-1.93,7,7,0,0,0,2.51-1.44A1.7,1.7,0,0,0,21,12.22a3.11,3.11,0,0,0-1.45-.92c-.28-.12-.55-.24-.81-.37a5.67,5.67,0,0,1-3.08-4.1,4.46,4.46,0,0,1,2.45-4.68A1,1,0,1,1,18.9,4a2.48,2.48,0,0,0-1.28,2.57,3.66,3.66,0,0,0,2,2.6c.22.11.45.21.69.31a4.72,4.72,0,0,1,2.36,1.7A3.64,3.64,0,0,1,22,15.44a8.52,8.52,0,0,1-3.22,1.93A1,1,0,0,1,18.43,17.45Z"/><path class="cls-1" d="M31.65,17.45a1,1,0,0,1-.38-1.93,7,7,0,0,0,2.51-1.44,1.66,1.66,0,0,0,.41-1.86,3.06,3.06,0,0,0-1.45-.92c-.27-.12-.55-.24-.81-.37a5.69,5.69,0,0,1-3.08-4.1A4.46,4.46,0,0,1,31.3,2.15,1,1,0,1,1,32.11,4a2.48,2.48,0,0,0-1.28,2.57,3.66,3.66,0,0,0,2,2.6c.22.11.46.21.69.31a4.72,4.72,0,0,1,2.36,1.7,3.64,3.64,0,0,1-.64,4.28A8.55,8.55,0,0,1,32,17.37,1,1,0,0,1,31.65,17.45Z"/><path class="cls-1" d="M44.86,17.45a1,1,0,0,1-.38-1.93A7.08,7.08,0,0,0,47,14.08a1.7,1.7,0,0,0,.41-1.86A3.14,3.14,0,0,0,46,11.3l-.8-.37a5.71,5.71,0,0,1-3.09-4.1,4.46,4.46,0,0,1,2.45-4.68A1,1,0,0,1,45.33,4,2.49,2.49,0,0,0,44,6.55a3.7,3.7,0,0,0,2,2.6l.68.31a4.68,4.68,0,0,1,2.36,1.7,3.62,3.62,0,0,1-.64,4.28,8.55,8.55,0,0,1-3.23,1.93A1,1,0,0,1,44.86,17.45Z"/><path class="cls-2" d="M20.24,38.3s-.76,9.09,5.79,9.09"/></svg>