<svg id="Layer_1" data-name="Layer 1" xmlns="http://www.w3.org/2000/svg" viewBox="0 0 73.07 57.86"><defs><style>.cls-1{fill:#231f20;}</style></defs><path class="cls-1" d="M67.93,14.18,37.55,5.4a1.06,1.06,0,0,0-.56,0L6.61,14.18a1,1,0,0,0,0,1.93L22,20.31c-3.48,4.17-3.54,11.58-3.54,11.93a1,1,0,0,0,.67.94l18.28,6.41a1,1,0,0,0,.34.06,1,1,0,0,0,.33-.06l18.27-6.41a1,1,0,0,0,.67-.94c0-.36-.06-8-3.72-12.14l8.2-2.24v13a3.28,3.28,0,0,0-.12,6.21L59.22,51.71a1,1,0,0,0,1,1.15H64.8a1,1,0,0,0,1-1.15L63.63,37.08a3.28,3.28,0,0,0-.13-6.21V17.32l4.42-1.21a1,1,0,0,0,0-1.93ZM55,31.54,37.75,37.59,20.49,31.54c.1-2,.67-7.92,3.68-10.63L37,24.42a1,1,0,0,0,.52,0l13-3.55.73,0C54.32,23.5,54.89,29.49,55,31.54Zm8.64,19.32H61.37l1.13-7.71ZM63.83,34A1.41,1.41,0,1,1,63.27,33l0,0a1.42,1.42,0,0,1,.24.25l0,0A1.31,1.31,0,0,1,63.83,34ZM62.4,15.54,37.33,13.91a1,1,0,0,0-1.06.93,1,1,0,0,0,.93,1.07l19.28,1.25L37.27,22.42,24.21,18.84h0L10.58,15.12,37.27,7.4,64,15.12Z"/></svg>