<?xml version="1.0" encoding="utf-8"?>
<!-- Generator: Adobe Illustrator 25.2.0, SVG Export Plug-In . SVG Version: 6.00 Build 0)  -->
<svg version="1.1" id="Layer_1" xmlns="http://www.w3.org/2000/svg" xmlns:xlink="http://www.w3.org/1999/xlink" x="0px" y="0px"
	 viewBox="0 0 73.1 57.9" style="enable-background:new 0 0 73.1 57.9;" xml:space="preserve">
<style type="text/css">
	.st0{fill:#231F20;}
</style>
<path class="st0" d="M62.1,8.8L31.7,0C31.5,0,31.3,0,31.1,0L0.7,8.8C0.2,9-0.1,9.5,0,10c0.1,0.3,0.4,0.6,0.7,0.7l15.4,4.2
	c-3.5,4.2-3.5,11.6-3.5,11.9c0,0.4,0.3,0.8,0.7,0.9l18.3,6.4c0.1,0,0.2,0.1,0.3,0.1c0.1,0,0.2,0,0.3-0.1l18.3-6.4
	c0.4-0.1,0.7-0.5,0.7-0.9c0-0.4-0.1-8-3.7-12.1l8.2-2.2v13c-1.7,0.5-2.7,2.4-2.1,4.1c0.3,1,1.1,1.7,2,2.1l-2.2,14.6
	c-0.1,0.5,0.3,1.1,0.8,1.1c0.1,0,0.1,0,0.2,0h4.6c0.6,0,1-0.4,1-1c0-0.1,0-0.1,0-0.2l-2.2-14.6c1.7-0.6,2.6-2.5,2-4.2
	c-0.3-1-1.1-1.7-2.1-2V12l4.4-1.2c0.5-0.1,0.8-0.7,0.7-1.2C62.7,9.2,62.4,8.9,62.1,8.8L62.1,8.8z M49.1,26.2l-17.3,6l-17.3-6
	c0.1-2,0.7-7.9,3.7-10.6l12.8,3.5c0.2,0,0.3,0,0.5,0l13-3.5h0.7C48.4,18.1,49,24.1,49.1,26.2z M57.8,45.5h-2.3l1.1-7.7L57.8,45.5z
	 M58,28.6c0.1,0.8-0.5,1.5-1.3,1.5s-1.5-0.5-1.5-1.3s0.5-1.5,1.3-1.5c0.3,0,0.7,0.1,1,0.3l0,0c0.1,0.1,0.2,0.2,0.2,0.2l0,0
	C57.8,28.1,57.9,28.4,58,28.6z M56.5,10.2L31.5,8.5c-0.5,0-1,0.4-1.1,0.9c0,0.6,0.4,1,0.9,1.1c0,0,0,0,0,0l19.3,1.2l-19.2,5.3
	l-13.1-3.6l0,0L4.7,9.8L31.4,2l26.7,7.7L56.5,10.2z"/>
</svg>
