<?xml version="1.0" encoding="utf-8"?>
<!-- Generator: Adobe Illustrator 25.2.0, SVG Export Plug-In . SVG Version: 6.00 Build 0)  -->
<svg version="1.1" id="Layer_1" xmlns="http://www.w3.org/2000/svg" xmlns:xlink="http://www.w3.org/1999/xlink" x="0px" y="0px"
	 viewBox="0 0 73.1 57.9" style="enable-background:new 0 0 73.1 57.9;" xml:space="preserve">
<path d="M44.1,0C40.3,0,36.6,1,33.3,2.8c-10.9-6-24.6-1.9-30.6,9s-1.9,24.6,9,30.6c6.7,3.7,14.8,3.7,21.6,0c10.9,6,24.6,2,30.6-8.9
	c6-10.9,2-24.6-8.9-30.6C51.6,1,47.9,0,44.1,0z M33.3,40c-0.5-0.3-0.9-0.6-1.4-0.9l4.1-1.1C35.2,38.8,34.3,39.4,33.3,40L33.3,40z
	 M38.6,35.3L38,35.5l0,0l-7.8,2.1c-0.8-0.8-1.6-1.6-2.3-2.4l9.2-2.4l0,0l3.9-1.1C40.3,33,39.5,34.2,38.6,35.3L38.6,35.3z M41.8,29.4
	l-5.2,1.4l0,0l-10,2.7c-0.5-0.8-1-1.7-1.4-2.6L35.9,28l0,0l6.8-1.8C42.5,27.3,42.2,28.3,41.8,29.4z M35.2,26.1L35.2,26.1L24.6,29
	c-0.3-0.9-0.6-1.9-0.8-2.8l10.8-2.9l0,0L43,21c0,0.5,0.1,1,0.1,1.5s0,1-0.1,1.5L35.2,26.1z M34,21.4L34,21.4l-10.4,2.8
	c0-0.6-0.1-1.1-0.1-1.7s0-0.9,0-1.3l9.8-2.6l0,0l8.6-2.3c0.3,0.9,0.5,1.9,0.7,2.8L34,21.4z M32.7,16.8L32.7,16.8l-8.9,2.4
	c0.2-1.1,0.5-2.2,0.8-3.2l7.5-2l0,0l7.8-2.1c0.5,0.9,1,1.7,1.4,2.6L32.7,16.8z M31.5,12.1L31.5,12.1l-5.9,1.6
	c0.6-1.3,1.4-2.5,2.2-3.6l3.1-0.8l0,0l5.7-1.5c0.8,0.7,1.5,1.6,2.2,2.4L31.5,12.1z M30.3,7.3c0.9-0.8,1.9-1.6,3-2.2
	c0.5,0.3,1,0.6,1.5,1L30.3,7.3z M22.5,43.1C11.2,43.1,2,33.9,2,22.6C2,11.2,11.2,2,22.5,2c3.1,0,6.1,0.7,8.8,2
	C21.1,11,18.5,25,25.5,35.3c1.6,2.3,3.5,4.2,5.8,5.8C28.6,42.4,25.6,43.1,22.5,43.1z M44.1,43.1c-3,0-6-0.7-8.8-2
	C45.6,34,48.1,20,41.1,9.8c-1.6-2.3-3.5-4.2-5.8-5.8c10.3-4.8,22.5-0.4,27.3,9.8s0.4,22.5-9.8,27.3C50.1,42.4,47.1,43,44.1,43.1
	L44.1,43.1z"/>
</svg>
