<svg id="Layer_1" data-name="Layer 1" xmlns="http://www.w3.org/2000/svg" viewBox="0 0 73.07 57.86"><path d="M47.22,5.27A22.37,22.37,0,0,0,36.46,8a22.52,22.52,0,1,0,0,39.54A22.52,22.52,0,1,0,47.22,5.27Zm-10.76,40c-.47-.28-.92-.59-1.36-.91l4.11-1.1A19.59,19.59,0,0,1,36.46,45.25Zm5.31-4.71-.66.18h0l-7.85,2.1A20.35,20.35,0,0,1,31,40.4L40.16,38h0l3.92-1.05A20.85,20.85,0,0,1,41.77,40.54ZM45,34.64,39.85,36h0l-10,2.67a20.83,20.83,0,0,1-1.41-2.64L39.1,33.21h0l6.79-1.82A20.17,20.17,0,0,1,45,34.64ZM38.4,31.38h0L27.75,34.24A21,21,0,0,1,27,31.41l10.81-2.89h0l8.32-2.23c0,.5.06,1,.06,1.51s0,1-.06,1.5Zm-1.26-4.69h0L26.78,29.47c-.05-.56-.08-1.11-.08-1.67s0-.9.05-1.34l9.83-2.64h0l8.64-2.31a19.47,19.47,0,0,1,.69,2.83ZM35.88,22h0L27,24.38a20.77,20.77,0,0,1,.82-3.24l7.5-2h0L43.15,17a21.47,21.47,0,0,1,1.38,2.65Zm-1.26-4.7h0l-5.86,1.57A20.64,20.64,0,0,1,31,15.26l3.08-.83h0l5.72-1.53A19.47,19.47,0,0,1,42,15.33Zm-1.15-4.72a20.63,20.63,0,0,1,3-2.24,17.62,17.62,0,0,1,1.52,1ZM25.7,48.32A20.53,20.53,0,1,1,34.47,9.24a22.51,22.51,0,0,0,0,37.11A20.29,20.29,0,0,1,25.7,48.32Zm21.52,0a20.29,20.29,0,0,1-8.76-2,22.52,22.52,0,0,0,0-37.11,20.52,20.52,0,1,1,8.76,39.08Z"/></svg>