<?xml version="1.0" encoding="utf-8"?>
<!-- Generator: Adobe Illustrator 25.2.0, SVG Export Plug-In . SVG Version: 6.00 Build 0)  -->
<svg version="1.1" id="Layer_1" xmlns="http://www.w3.org/2000/svg" xmlns:xlink="http://www.w3.org/1999/xlink" x="0px" y="0px"
	 viewBox="0 0 73.1 57.9" style="enable-background:new 0 0 73.1 57.9;" xml:space="preserve">
<style type="text/css">
	.st0{fill:#231F20;}
</style>
<g>
	<path class="st0" d="M28,34.5c-3.4-0.1-6.3,2.5-6.4,5.9c0,0.2,0,0.4,0,0.6c-0.1,3.4,2.6,6.3,6,6.5c0.1,0,0.3,0,0.4,0H28
		c3.6,0,6.5-2.9,6.5-6.5C34.5,37.3,31.6,34.5,28,34.5z M28,45.2L28,45.2c-2.3,0.1-4.1-1.6-4.2-3.9c0-0.1,0-0.2,0-0.4
		c-0.2-2.2,1.4-4.1,3.6-4.3c0.2,0,0.4,0,0.5,0c2.2-0.1,4.1,1.6,4.2,3.8c0,0.2,0,0.3,0,0.5c0.1,2.2-1.5,4.1-3.7,4.2
		C28.4,45.2,28.2,45.2,28,45.2z"/>
	<path class="st0" d="M24.6,33.2h6.9c0.6,0,1.1-0.5,1.1-1.1L34,9.2c0-0.6-0.4-1.2-1.1-1.2c0,0,0,0-0.1,0h-9.6
		c-0.3,0-0.6,0.1-0.8,0.4c-0.2,0.2-0.3,0.5-0.3,0.8l1.4,22.9C23.5,32.7,24,33.2,24.6,33.2z M31.7,10.3l-1.2,20.6h-4.8l-1.2-20.6
		L31.7,10.3z"/>
	<path class="st0" d="M40.4,14.5c0.3,0,0.6-0.1,0.8-0.3L53.4,1.9c0.4-0.4,0.4-1.1,0-1.6c-0.4-0.4-1.1-0.4-1.6,0L39.6,12.6
		c-0.4,0.4-0.4,1.2,0,1.6C39.8,14.4,40.1,14.5,40.4,14.5z"/>
	<path class="st0" d="M41.2,32.9c-0.4-0.5-1.1-0.5-1.6-0.1s-0.5,1.1-0.1,1.6c0,0,0.1,0.1,0.1,0.1l12.3,12.3c0.2,0.2,0.5,0.3,0.8,0.3
		c0.3,0,0.6-0.1,0.8-0.3c0.4-0.4,0.4-1.1,0-1.6L41.2,32.9z"/>
	<path class="st0" d="M54.9,22.4H40.4c-0.6,0-1.1,0.5-1.1,1.1c0,0.6,0.5,1.1,1.1,1.1h14.5c0.6,0,1.1-0.5,1.1-1.1
		C56,22.9,55.5,22.4,54.9,22.4z"/>
	<path class="st0" d="M4.2,0.3C3.8-0.1,3-0.1,2.6,0.3c0,0,0,0,0,0c-0.4,0.4-0.4,1.1,0,1.6l12.3,12.3c0.2,0.2,0.5,0.3,0.8,0.3
		c0.3,0,0.6-0.1,0.8-0.3c0.4-0.4,0.4-1.1,0-1.6L4.2,0.3z"/>
	<path class="st0" d="M14.9,32.9L2.6,45.1c-0.4,0.4-0.4,1.1,0,1.6c0.2,0.2,0.5,0.3,0.8,0.3c0.3,0,0.6-0.1,0.8-0.3l12.3-12.3
		c0.4-0.4,0.4-1.1,0-1.6C16,32.4,15.3,32.4,14.9,32.9C14.9,32.9,14.9,32.9,14.9,32.9z"/>
	<path class="st0" d="M15.7,22.4H1.1c-0.6,0-1.1,0.5-1.1,1.1c0,0.6,0.5,1.1,1.1,1.1h14.5c0.6,0,1.1-0.5,1.1-1.1
		C16.8,22.9,16.3,22.4,15.7,22.4z"/>
</g>
</svg>
