<svg id="Layer_1" data-name="Layer 1" xmlns="http://www.w3.org/2000/svg" viewBox="0 0 73.07 57.86"><defs><style>.cls-1{fill:#231f20;}</style></defs><path class="cls-1" d="M36.41,37.77a5.48,5.48,0,0,0-5.69,5.78,5.54,5.54,0,0,0,5.69,5.74h.05a5.76,5.76,0,0,0-.05-11.52Zm.05,9.52h-.05a3.56,3.56,0,0,1-3.69-3.74,3.5,3.5,0,0,1,3.69-3.78,3.56,3.56,0,0,1,3.74,3.78A3.51,3.51,0,0,1,36.46,47.29Z"/><path class="cls-1" d="M33.38,36.62h6.16a1,1,0,0,0,1-.94l1.2-20.29a1,1,0,0,0-1-1.06H32.18a1,1,0,0,0-.73.32,1.06,1.06,0,0,0-.27.74l1.2,20.29A1,1,0,0,0,33.38,36.62Zm6.3-20.29L38.6,34.62H34.32L33.24,16.33Z"/><path class="cls-1" d="M47.41,20.07a1,1,0,0,0,.7-.3L59,8.89a1,1,0,0,0,0-1.41,1,1,0,0,0-1.41,0L46.7,18.36a1,1,0,0,0,.71,1.71Z"/><path class="cls-1" d="M48.11,36.36a1,1,0,1,0-1.41,1.41L57.58,48.65a1,1,0,0,0,.71.29,1,1,0,0,0,.7-.29,1,1,0,0,0,0-1.41Z"/><path class="cls-1" d="M60.3,27.06H47.41a1,1,0,0,0,0,2H60.3a1,1,0,0,0,0-2Z"/><path class="cls-1" d="M15.3,7.48a1,1,0,0,0-1.42,0,1,1,0,0,0,0,1.41L24.76,19.77a1,1,0,0,0,.71.3,1,1,0,0,0,.71-.3,1,1,0,0,0,0-1.41Z"/><path class="cls-1" d="M24.76,36.36,13.88,47.24a1,1,0,0,0,0,1.41,1,1,0,0,0,.71.29,1,1,0,0,0,.71-.29L26.18,37.77a1,1,0,0,0,0-1.41A1,1,0,0,0,24.76,36.36Z"/><path class="cls-1" d="M25.47,27.06H12.58a1,1,0,0,0,0,2H25.47a1,1,0,0,0,0-2Z"/></svg>