<?xml version="1.0" encoding="utf-8"?>
<!-- Generator: Adobe Illustrator 25.2.0, SVG Export Plug-In . SVG Version: 6.00 Build 0)  -->
<svg version="1.1" id="Layer_1" xmlns="http://www.w3.org/2000/svg" xmlns:xlink="http://www.w3.org/1999/xlink" x="0px" y="0px"
	 viewBox="0 0 73.1 57.9" style="enable-background:new 0 0 73.1 57.9;" xml:space="preserve">
<style type="text/css">
	.st0{fill:#231F20;}
</style>
<g>
	<path class="st0" d="M23.8,0C10.7,0,0,10.7,0,23.8s10.7,23.8,23.8,23.8S47.7,37,47.7,23.8l0,0C47.6,10.7,37,0,23.8,0z M23.8,45.5
		c-12,0-21.7-9.7-21.7-21.7c0-12,9.7-21.7,21.7-21.7c12,0,21.7,9.7,21.7,21.7v0C45.5,35.8,35.8,45.5,23.8,45.5z"/>
	<path class="st0" d="M24.8,22.6L19.9,6.3c-0.2-0.6-0.8-0.9-1.3-0.7c-0.5,0.2-0.8,0.7-0.7,1.3L22,23.4c-0.1,0.1-0.2,0.3-0.2,0.4
		l-10.9,4.9c-0.5,0.3-0.7,0.9-0.5,1.4c0.2,0.5,0.8,0.7,1.3,0.5l11.3-4.1c0.3,0.1,0.6,0.2,0.9,0.2c1.2,0,2.2-1,2.2-2.2
		C26,23.8,25.5,23,24.8,22.6z"/>
	<circle class="st0" cx="23.8" cy="43.1" r="1.1"/>
	<path class="st0" d="M36.1,36.9c-0.4,0.4-0.4,1.1,0,1.6c0.4,0.4,1.1,0.4,1.6,0c0.4-0.4,0.4-1.1,0-1.6
		C37.2,36.5,36.5,36.5,36.1,36.9z"/>
	<path class="st0" d="M42.3,23.5c-0.6-0.1-1.2,0.4-1.2,1c-0.1,0.6,0.4,1.2,1,1.2c0.1,0,0.1,0,0.2,0c0.6-0.1,1.1-0.6,1-1.2
		C43.2,24,42.8,23.6,42.3,23.5z"/>
	<path class="st0" d="M36.1,10.8c-0.4,0.4-0.4,1.1,0,1.6c0.4,0.4,1.1,0.4,1.6,0c0.4-0.4,0.4-1.1,0-1.6
		C37.2,10.3,36.5,10.3,36.1,10.8z"/>
	<circle class="st0" cx="23.8" cy="6.2" r="1.1"/>
	<path class="st0" d="M11.6,12.4c0.4-0.4,0.4-1.1,0-1.6c-0.4-0.4-1.1-0.4-1.6,0c-0.4,0.4-0.4,1.1,0,1.6
		C10.4,12.8,11.1,12.8,11.6,12.4z"/>
	<path class="st0" d="M5.4,23.5c-0.6,0-1.1,0.5-1.1,1.1c0,0.6,0.5,1.1,1.1,1.1c0.6,0,1.1-0.5,1.1-1.1c0,0,0,0,0,0
		C6.5,24,6,23.5,5.4,23.5z"/>
	<path class="st0" d="M10,36.9c-0.4,0.4-0.4,1.1,0,1.6c0.4,0.4,1.1,0.4,1.6,0c0.4-0.4,0.4-1.1,0-1.6C11.1,36.5,10.4,36.5,10,36.9z"
		/>
</g>
</svg>
