<svg id="Layer_1" data-name="Layer 1" xmlns="http://www.w3.org/2000/svg" viewBox="0 0 73.07 57.86"><defs><style>.cls-1{fill:#231f20;}</style></defs><path class="cls-1" d="M37.27,5.87A22.53,22.53,0,1,0,59.8,28.4,22.56,22.56,0,0,0,37.27,5.87Zm0,43.06A20.53,20.53,0,1,1,57.8,28.4,20.55,20.55,0,0,1,37.27,48.93Z"/><path class="cls-1" d="M38.18,27.27,33.55,11.82a1,1,0,0,0-1.93.52L35.53,28a1.62,1.62,0,0,0-.2.42L25,33.06a1,1,0,0,0,.75,1.85L36.43,31a2.11,2.11,0,0,0,.84.18,2.06,2.06,0,0,0,.91-3.91Z"/><circle class="cls-1" cx="37.27" cy="46.61" r="1.05"/><path class="cls-1" d="M48.87,40.75a1.05,1.05,0,1,0,1.49,0A1.06,1.06,0,0,0,48.87,40.75Z"/><path class="cls-1" d="M54.73,28.09a1.06,1.06,0,1,0,0,2.11,1.06,1.06,0,0,0,0-2.11Z"/><path class="cls-1" d="M48.87,16.06a1.05,1.05,0,1,0,1.49,0A1.06,1.06,0,0,0,48.87,16.06Z"/><circle class="cls-1" cx="37.27" cy="11.69" r="1.05"/><path class="cls-1" d="M25.67,17.55a1.05,1.05,0,1,0-1.49,0A1.06,1.06,0,0,0,25.67,17.55Z"/><path class="cls-1" d="M19.81,28.09a1.06,1.06,0,1,0,1.05,1.06A1.06,1.06,0,0,0,19.81,28.09Z"/><path class="cls-1" d="M24.18,40.75a1.05,1.05,0,1,0,1.49,0A1.06,1.06,0,0,0,24.18,40.75Z"/></svg>