<?xml version="1.0" encoding="utf-8"?>
<!-- Generator: Adobe Illustrator 25.2.0, SVG Export Plug-In . SVG Version: 6.00 Build 0)  -->
<svg version="1.1" id="Layer_1" xmlns="http://www.w3.org/2000/svg" xmlns:xlink="http://www.w3.org/1999/xlink" x="0px" y="0px"
	 viewBox="0 0 396 396" style="enable-background:new 0 0 396 396;" xml:space="preserve">
<style type="text/css">
	.st0{fill:#FFFFFF;}
</style>
<path class="st0" d="M359.4,20.8L235.7,376h-76.3L36.1,20.8h118.2v51.3l-22.9,54.7c-2.7,6.4-2.6,13.6,0.4,19.8L190,269.2v-84.9
	c-3.8-1.9-6.8-5.2-8.3-9.2l-1-7.3c0.8-9.3,8.9-16.1,18.2-15.3c8.7,0.7,15.4,8,15.4,16.7c0,1.1-0.1,2.3-0.3,3.4
	c-1,5.1-4.4,9.4-9,11.6l0,0v84.9l0.7-1.5l57.5-121.2c3-6.2,3.1-13.5,0.5-19.8l-23-54.6V20.8H359.4z"/>
<path class="st0" d="M181.7,175.1c-0.7-1.9-1.1-3.9-1.1-5.9c0-0.5,0-0.9,0.1-1.4L181.7,175.1z"/>
<path class="st0" d="M-491.6,20.4L-539.6,158h-29.6l-47.7-137.6h45.8v19.9l-8.9,21.2c-1.1,2.5-1,5.3,0.2,7.7l22.5,47.5V83.7
	c-1.5-0.7-2.6-2-3.2-3.6l-0.4-2.8c0.3-3.6,3.5-6.2,7-5.9c3.4,0.3,6,3.1,6,6.5c0,0.4,0,0.9-0.1,1.3c-0.4,2-1.7,3.6-3.5,4.5l0,0v32.9
	l0.3-0.6l22.3-46.9c1.1-2.4,1.2-5.2,0.2-7.7l-8.9-21.2V20.4H-491.6z"/>
</svg>
