<svg id="Layer_1" data-name="Layer 1" xmlns="http://www.w3.org/2000/svg" viewBox="0 0 396 396"><defs><style>.cls-1{fill:#fff;}</style></defs><path class="cls-1" d="M359.37,20.77,235.66,376H159.33L36.13,20.77H154.29V72.06l-22.93,54.67a23.92,23.92,0,0,0,.45,19.83L190,269.18V184.3a16.64,16.64,0,0,1-8.3-9.17l-1-7.27a16.82,16.82,0,0,1,33.58,1.38,17.85,17.85,0,0,1-.33,3.38,16.77,16.77,0,0,1-9,11.65l0,0v84.88l.69-1.45,57.51-121.17a24.38,24.38,0,0,0,.45-19.83L240.61,72.06V20.77Z"/><path class="cls-1" d="M181.68,175.13a16.12,16.12,0,0,1-1.08-5.89c0-.48,0-.93.06-1.38Z"/></svg>